# SSTK version 0.8.0
# 6
mtllib original-6.mtl
o Component_39_2/Component_39_1_2/mesh17/mesh17-geometry#mesh17-geometry
v -0.883646 0.293538 -0.110028
v -0.883646 0.229472 -0.110028
v -0.841018 0.293538 -0.154566
v -0.910910 0.229472 -0.054734
v -0.841018 0.229472 -0.154566
v -0.872591 0.293538 -0.195703
v -0.910910 0.293538 -0.054734
v -0.926126 0.229472 -0.139769
v -0.786971 0.229472 -0.184226
v -0.872591 0.229472 -0.195703
v -0.804714 0.293538 -0.232953
v -0.926126 0.293538 -0.139769
v -0.920287 0.229472 0.006199
v -0.804714 0.229472 -0.232953
v -0.786971 0.293538 -0.184226
v -0.920287 0.293538 0.006199
v -0.926126 0.229472 0.152166
v -0.728779 0.229472 -0.248070
v -0.726508 0.229472 -0.196264
v -0.728779 0.293538 -0.248070
v -0.910910 0.229472 0.067131
v -0.926126 0.293538 0.152166
v -0.960367 0.229472 -0.070326
v -0.960367 0.293538 -0.070326
v -0.726508 0.293538 -0.196264
v -0.910910 0.293538 0.067131
v -0.960367 0.293538 0.082723
v -0.883646 0.229472 0.122426
v -0.960367 0.229472 0.082723
v -0.656261 0.293538 -0.240143
v -0.672243 0.229472 -0.190332
v -0.676692 0.293538 -0.190818
v -0.883646 0.293538 0.122426
v -0.872591 0.229472 0.208100
v -0.972144 0.293538 0.006199
v -0.972144 0.229472 0.006199
v -0.651812 0.229472 -0.239657
v -0.872591 0.293538 0.208100
v -0.841018 0.229472 0.166963
v -0.841018 0.293538 0.166963
v -0.804714 0.229472 0.245350
v -0.804714 0.293538 0.245350
v -0.786971 0.229472 0.196623
v -0.786971 0.293538 0.196623
v -0.728779 0.229472 0.260468
v -0.728779 0.293538 0.260468
v -0.726508 0.229472 0.208661
v -0.726508 0.293538 0.208661
v -0.672243 0.229472 0.202729
v -0.651812 0.229472 0.252054
v -0.676692 0.293538 0.203215
v -0.656261 0.293538 0.252540
vn 0.8191942408873786 0 0.5735161686447482
vn 0.6088479538879887 0 0.7932869399192259
vn -0.6088479538879887 0 -0.7932869399192259
vn -0.8191942408873786 0 -0.5735161686447482
vn 0.9537279293168416 0 0.300670977716523
vn -0.9537279293168416 0 -0.300670977716523
vn 0 1 0
vn 0 -1 0
vn 0.3421578179014338 0 0.9396424999162869
vn -0.3421578179014338 0 -0.9396424999162869
vn 1 0 0
vn -1 0 0
vn 0.04380201014445912 0 0.9990402313757463
vn -0.04380201014445912 0 -0.9990402313757463
vn 0.9537279293168416 0 -0.300670977716523
vn -0.9537279293168416 0 0.300670977716523
vn 0.10866702244120945 0 -0.9940782052905905
vn -0.10866702244120945 0 0.9940782052905905
vn 0.8191942408873786 0 -0.5735161686447482
vn -0.8191942408873786 0 0.5735161686447482
vn -0.6088479538879887 0 0.7932869399192259
vn 0.6088479538879887 0 -0.7932869399192259
vn 0.9218085642238614 0.06691796836517357 0.38182581949551375
vn -0.9218085642238614 -0.06691796836517357 -0.38182581949551375
vn -0.3421578179014338 0 0.9396424999162869
vn 0.3421578179014338 0 -0.9396424999162869
vn -0.04380201014445912 0 0.9990402313757463
vn 0.04380201014445912 0 -0.9990402313757463
vn 0.10866702244120945 0 0.9940782052905905
vn -0.10866702244120945 0 -0.9940782052905905
vn 0.9218085642238614 0.06691796836517375 -0.38182581949551375
vn -0.9218085642238614 -0.06691796836517375 0.38182581949551375
usemtl material_0_0
f 1//1 2//1 3//2
f 3//3 2//4 1//4
f 2//1 1//1 4//5
f 4//6 1//4 2//4
f 5//2 3//2 2//1
f 2//4 3//3 5//3
f 1//7 3//7 6//7
f 6//8 3//8 1//8
f 7//5 4//5 1//1
f 1//4 4//6 7//6
f 4//8 8//8 2//8
f 2//7 8//7 4//7
f 5//2 9//9 3//2
f 3//3 9//10 5//3
f 2//8 10//8 5//8
f 5//7 10//7 2//7
f 6//7 3//7 11//7
f 11//8 3//8 6//8
f 12//7 1//7 6//7
f 6//8 1//8 12//8
f 4//5 7//5 13//11
f 13//12 7//6 4//6
f 7//7 1//7 12//7
f 12//8 1//8 7//8
f 13//8 8//8 4//8
f 4//7 8//7 13//7
f 8//8 10//8 2//8
f 2//7 10//7 8//7
f 5//8 14//8 9//8
f 9//7 14//7 5//7
f 15//9 3//2 9//9
f 9//10 3//3 15//10
f 10//8 14//8 5//8
f 5//7 14//7 10//7
f 3//7 15//7 11//7
f 11//8 15//8 3//8
f 6//3 11//10 10//3
f 10//2 11//9 6//2
f 6//3 10//3 12//4
f 12//1 10//2 6//2
f 16//11 13//11 7//5
f 7//6 13//12 16//12
f 16//7 7//7 12//7
f 12//8 7//8 16//8
f 8//8 13//8 17//8
f 17//7 13//7 8//7
f 8//4 12//4 10//3
f 10//2 12//1 8//1
f 14//8 18//8 9//8
f 9//7 18//7 14//7
f 9//9 19//13 15//9
f 15//10 19//14 9//10
f 14//10 10//3 11//10
f 11//9 10//2 14//9
f 11//7 15//7 20//7
f 20//8 15//8 11//8
f 13//11 16//11 21//15
f 21//16 16//12 13//12
f 22//7 16//7 12//7
f 12//8 16//8 22//8
f 13//8 21//8 17//8
f 17//7 21//7 13//7
f 23//8 8//8 17//8
f 17//7 8//7 23//7
f 12//4 8//4 24//6
f 24//5 8//1 12//1
f 18//14 14//10 20//14
f 20//13 14//9 18//13
f 9//8 18//8 19//8
f 19//7 18//7 9//7
f 25//13 15//9 19//13
f 19//14 15//10 25//14
f 11//10 20//14 14//10
f 14//9 20//13 11//9
f 15//7 25//7 20//7
f 20//8 25//8 15//8
f 26//15 21//15 16//11
f 16//12 21//16 26//16
f 16//7 22//7 26//7
f 26//8 22//8 16//8
f 27//7 22//7 12//7
f 12//8 22//8 27//8
f 21//8 28//8 17//8
f 17//7 28//7 21//7
f 23//6 24//6 8//4
f 8//1 24//5 23//5
f 29//8 23//8 17//8
f 17//7 23//7 29//7
f 24//7 27//7 12//7
f 12//8 27//8 24//8
f 20//14 30//17 18//14
f 18//13 30//18 20//13
f 19//8 18//8 31//8
f 31//7 18//7 19//7
f 19//13 31//18 25//13
f 25//14 31//17 19//14
f 25//7 32//7 20//7
f 20//8 32//8 25//8
f 21//15 26//15 28//19
f 28//20 26//16 21//16
f 26//7 22//7 33//7
f 33//8 22//8 26//8
f 27//16 29//16 22//20
f 22//19 29//15 27//15
f 17//8 28//8 34//8
f 34//7 28//7 17//7
f 24//6 23//6 35//12
f 35//11 23//5 24//5
f 36//8 23//8 29//8
f 29//7 23//7 36//7
f 17//20 22//20 29//16
f 29//15 22//19 17//19
f 35//7 27//7 24//7
f 24//8 27//8 35//8
f 30//7 20//7 32//7
f 32//8 20//8 30//8
f 37//17 18//14 30//17
f 30//18 18//13 37//18
f 37//8 31//8 18//8
f 18//7 31//7 37//7
f 32//18 25//13 31//18
f 31//17 25//14 32//17
f 33//19 28//19 26//15
f 26//16 28//20 33//20
f 22//7 38//7 33//7
f 33//8 38//8 22//8
f 29//16 27//16 36//12
f 36//11 27//15 29//15
f 28//8 39//8 34//8
f 34//7 39//7 28//7
f 34//21 38//21 17//20
f 17//19 38//22 34//22
f 36//12 35//12 23//6
f 23//5 35//11 36//11
f 22//20 17//20 38//21
f 38//22 17//19 22//19
f 35//12 36//12 27//16
f 27//15 36//11 35//11
f 30//23 32//23 37//23
f 37//24 32//24 30//24
f 31//23 37//23 32//23
f 32//24 37//24 31//24
f 28//19 33//19 39//22
f 39//21 33//20 28//20
f 33//7 38//7 40//7
f 40//8 38//8 33//8
f 34//8 39//8 41//8
f 41//7 39//7 34//7
f 34//21 41//25 38//21
f 38//22 41//26 34//22
f 40//22 39//22 33//19
f 33//20 39//21 40//21
f 38//7 42//7 40//7
f 40//8 42//8 38//8
f 39//8 43//8 41//8
f 41//7 43//7 39//7
f 42//25 38//21 41//25
f 41//26 38//22 42//26
f 39//22 40//22 43//26
f 43//25 40//21 39//21
f 40//7 42//7 44//7
f 44//8 42//8 40//8
f 41//8 43//8 45//8
f 45//7 43//7 41//7
f 41//25 45//27 42//25
f 42//26 45//28 41//26
f 44//26 43//26 40//22
f 40//21 43//25 44//25
f 42//7 46//7 44//7
f 44//8 46//8 42//8
f 43//8 47//8 45//8
f 45//7 47//7 43//7
f 46//27 42//25 45//27
f 45//28 42//26 46//28
f 44//26 48//28 43//26
f 43//25 48//27 44//25
f 44//7 46//7 48//7
f 48//8 46//8 44//8
f 47//28 43//26 48//28
f 48//27 43//25 47//27
f 47//8 49//8 45//8
f 45//7 49//7 47//7
f 45//27 50//29 46//27
f 46//28 50//30 45//28
f 48//7 46//7 51//7
f 51//8 46//8 48//8
f 48//28 51//30 47//28
f 47//27 51//29 48//27
f 49//30 47//28 51//30
f 51//29 47//27 49//29
f 50//8 45//8 49//8
f 49//7 45//7 50//7
f 52//29 46//27 50//29
f 50//30 46//28 52//30
f 52//7 51//7 46//7
f 46//8 51//8 52//8
f 49//31 51//31 50//31
f 50//32 51//32 49//32
f 52//31 50//31 51//31
f 51//32 50//32 52//32
