# SSTK version 0.8.0
# 3
mtllib original-3.mtl
o Component_36_1/Component_36/mesh13/mesh13-geometry#mesh13-geometry
v 0.468900 0.489640 -0.025835
v 0.276701 0.489640 0.038232
v 0.276701 0.489640 -0.025835
v 0.468900 0.489640 0.038232
v 0.276701 0.508860 0.006199
v 0.276701 0.508860 -0.025835
v 0.468900 0.508860 0.038232
v 0.276701 0.508860 0.038232
v 0.468900 0.508860 -0.025835
v 0.267969 0.575187 0.038232
v 0.267969 0.575187 0.006199
v 0.340767 0.508860 -0.025835
v 0.340767 0.508860 0.038232
v 0.329852 0.591768 0.038232
v 0.267969 0.575187 -0.025835
v 0.242368 0.636993 0.038232
v 0.242368 0.636993 0.006199
v 0.329852 0.591768 -0.025835
v 0.297851 0.669026 0.038232
v 0.242368 0.636993 -0.025835
v 0.297851 0.669026 -0.025835
v 0.201642 0.690067 0.038232
v 0.201642 0.690067 0.006199
v 0.246944 0.735369 -0.025835
v 0.246944 0.735369 0.038232
v 0.201642 0.690067 -0.025835
v 0.148568 0.730793 0.006199
v 0.148568 0.730793 0.038232
v 0.148568 0.730793 -0.025835
v 0.180601 0.786276 0.038232
v 0.086762 0.756394 0.038232
v 0.086762 0.756394 0.006199
v 0.086762 0.756394 -0.025835
v 0.180601 0.786276 -0.025835
v 0.103343 0.818277 0.038232
v 0.020435 0.765126 0.038232
v 0.020435 0.765126 0.006199
v 0.020435 0.765126 -0.025835
v 0.103343 0.818277 -0.025835
v -0.139731 0.786276 0.038232
v 0.020435 0.829192 0.038232
v -0.062473 0.818277 -0.025835
v -0.062473 0.818277 0.038232
v -0.139731 0.786276 -0.025835
v -0.045891 0.756394 0.038232
v -0.045891 0.756394 0.006199
v -0.045891 0.756394 -0.025835
v 0.020435 0.829192 -0.025835
v -0.206074 0.735369 0.038232
v -0.206074 0.735369 -0.025835
v -0.107698 0.730793 0.038232
v -0.107698 0.730793 0.006199
v -0.107698 0.730793 -0.025835
v -0.160772 0.690067 0.038232
v -0.160772 0.690067 -0.025835
v -0.256980 0.669026 -0.025835
v -0.256980 0.669026 0.038232
v -0.160772 0.690067 0.006199
v -0.201497 0.636993 0.038232
v -0.201497 0.636993 -0.025835
v -0.288982 0.591768 -0.025835
v -0.288982 0.591768 0.038232
v -0.201497 0.636993 0.006199
v -0.227098 0.575187 0.038232
v -0.227098 0.575187 -0.025835
v -0.227098 0.575187 0.006199
v -0.299897 0.508860 -0.025835
v -0.299897 0.508860 0.038232
v -0.235830 0.508860 -0.025835
v -0.235830 0.508860 0.038232
v -0.235830 0.508860 0.006199
v -0.428030 0.508860 -0.025835
v -0.428030 0.508860 0.038232
v -0.235830 0.489640 -0.025835
v -0.428030 0.489640 0.038232
v -0.428030 0.489640 -0.025835
v -0.235830 0.489640 0.038232
vn 0 -1 0
vn 0 1 0
vn -1 0 0
vn 1 0 0
vn 0 0 -1
vn 0 0 1
vn 0.9914448886106775 0.13052598533534113 0
vn 0.9659258492011171 0.2588189595935754 0
vn -0.9914448886106775 -0.13052598533534113 0
vn -0.9659258492011171 -0.2588189595935754 0
vn 0.8660253028382761 0.5000001748438417 0
vn -0.8660253028382761 -0.5000001748438417 0
vn 0.7071067811865475 0.7071067811865475 0
vn -0.7071067811865475 -0.7071067811865475 0
vn 0.5000001748438417 0.8660253028382761 0
vn -0.5000001748438417 -0.8660253028382761 0
vn 0.2588189595935754 0.9659258492011171 0
vn -0.2588189595935754 -0.9659258492011171 0
vn -0.2588189595935754 0.9659258492011171 0
vn 0.2588189595935754 -0.9659258492011171 0
vn 0.5000001748438417 -0.8660253028382761 0
vn -0.5000001748438417 0.8660253028382761 0
vn 0.7071067811865475 -0.7071067811865475 0
vn -0.7071067811865475 0.7071067811865475 0
vn 0.8660253028382761 -0.5000001748438417 0
vn -0.8660253028382761 0.5000001748438417 0
vn 0.9659258492011171 -0.2588189595935754 0
vn -0.9659258492011171 0.2588189595935754 0
vn 0.9914448886106775 -0.13052598533534113 0
vn -0.9914448886106775 0.13052598533534113 0
usemtl material_0_0
f 1//1 2//1 3//1
f 2//1 1//1 4//1
f 3//2 2//2 1//2
f 4//2 1//2 2//2
f 2//3 5//3 3//3
f 3//4 5//4 2//4
f 6//5 1//5 3//5
f 3//6 1//6 6//6
f 1//4 7//4 4//4
f 4//3 7//3 1//3
f 7//6 2//6 4//6
f 4//5 2//5 7//5
f 5//3 2//3 8//3
f 8//4 2//4 5//4
f 3//3 5//3 6//3
f 6//4 5//4 3//4
f 1//5 6//5 9//5
f 9//6 6//6 1//6
f 7//4 1//4 9//4
f 9//3 1//3 7//3
f 2//6 7//6 8//6
f 8//5 7//5 2//5
f 5//7 10//8 8//7
f 8//9 10//10 5//9
f 6//7 11//8 5//7
f 5//9 11//10 6//9
f 9//5 6//5 12//5
f 12//6 6//6 9//6
f 12//2 7//2 9//2
f 9//1 7//1 12//1
f 8//6 7//6 13//6
f 13//5 7//5 8//5
f 10//8 5//7 11//8
f 11//10 5//9 10//10
f 8//6 14//6 10//6
f 10//5 14//5 8//5
f 11//8 6//7 15//8
f 15//10 6//9 11//10
f 15//5 12//5 6//5
f 6//6 12//6 15//6
f 7//2 12//2 13//2
f 13//1 12//1 7//1
f 8//6 13//6 14//6
f 14//5 13//5 8//5
f 11//8 16//11 10//8
f 10//10 16//12 11//10
f 10//6 14//6 16//6
f 16//5 14//5 10//5
f 15//8 17//11 11//8
f 11//10 17//12 15//10
f 12//5 15//5 18//5
f 18//6 15//6 12//6
f 13//9 18//10 12//9
f 12//7 18//8 13//7
f 18//10 13//9 14//10
f 14//8 13//7 18//8
f 16//11 11//8 17//11
f 17//12 11//10 16//12
f 16//6 14//6 19//6
f 19//5 14//5 16//5
f 17//11 15//8 20//11
f 20//12 15//10 17//12
f 18//5 15//5 20//5
f 20//6 15//6 18//6
f 14//10 21//12 18//10
f 18//8 21//11 14//8
f 17//11 22//13 16//11
f 16//12 22//14 17//12
f 21//12 14//10 19//12
f 19//11 14//8 21//11
f 16//6 19//6 22//6
f 22//5 19//5 16//5
f 20//11 23//13 17//11
f 17//12 23//14 20//12
f 18//5 20//5 21//5
f 21//6 20//6 18//6
f 22//13 17//11 23//13
f 23//14 17//12 22//14
f 19//12 24//14 21//12
f 21//11 24//13 19//11
f 22//6 19//6 25//6
f 25//5 19//5 22//5
f 23//13 20//11 26//13
f 26//14 20//12 23//14
f 21//5 20//5 26//5
f 26//6 20//6 21//6
f 27//15 22//13 23//13
f 23//14 22//14 27//16
f 24//14 19//12 25//14
f 25//13 19//11 24//13
f 21//5 26//5 24//5
f 24//6 26//6 21//6
f 22//6 25//6 28//6
f 28//5 25//5 22//5
f 29//15 23//13 26//13
f 26//14 23//14 29//16
f 22//13 27//15 28//15
f 28//16 27//16 22//14
f 23//13 29//15 27//15
f 27//16 29//16 23//14
f 30//16 24//14 25//14
f 25//13 24//13 30//15
f 24//5 26//5 29//5
f 29//6 26//6 24//6
f 28//6 25//6 31//6
f 31//5 25//5 28//5
f 32//17 28//15 27//15
f 27//16 28//16 32//18
f 33//17 27//15 29//15
f 29//16 27//16 33//18
f 24//14 30//16 34//16
f 34//15 30//15 24//13
f 31//6 25//6 30//6
f 30//5 25//5 31//5
f 24//5 29//5 33//5
f 33//6 29//6 24//6
f 28//15 32//17 31//17
f 31//18 32//18 28//16
f 27//15 33//17 32//17
f 32//18 33//18 27//16
f 35//18 34//16 30//16
f 30//15 34//15 35//17
f 24//5 33//5 34//5
f 34//6 33//6 24//6
f 31//6 30//6 36//6
f 36//5 30//5 31//5
f 37//2 31//17 32//17
f 32//18 31//18 37//1
f 38//2 32//17 33//17
f 33//18 32//18 38//1
f 34//16 35//18 39//18
f 39//17 35//17 34//15
f 40//6 30//6 35//6
f 35//5 30//5 40//5
f 34//5 33//5 38//5
f 38//6 33//6 34//6
f 40//6 36//6 30//6
f 30//5 36//5 40//5
f 31//17 37//2 36//2
f 36//1 37//1 31//18
f 32//17 38//2 37//2
f 37//1 38//1 32//18
f 41//1 39//18 35//18
f 35//17 39//17 41//2
f 34//5 42//5 39//5
f 39//6 42//6 34//6
f 40//6 35//6 43//6
f 43//5 35//5 40//5
f 34//5 38//5 44//5
f 44//6 38//6 34//6
f 40//6 45//6 36//6
f 36//5 45//5 40//5
f 46//19 36//2 37//2
f 37//1 36//1 46//20
f 47//19 37//2 38//2
f 38//1 37//1 47//20
f 39//18 41//1 48//1
f 48//2 41//2 39//17
f 43//6 35//6 41//6
f 41//5 35//5 43//5
f 34//5 44//5 42//5
f 42//6 44//6 34//6
f 39//5 42//5 48//5
f 48//6 42//6 39//6
f 40//21 42//20 43//20
f 43//19 42//19 40//22
f 47//5 44//5 38//5
f 38//6 44//6 47//6
f 49//6 45//6 40//6
f 40//5 45//5 49//5
f 36//2 46//19 45//19
f 45//20 46//20 36//1
f 37//2 47//19 46//19
f 46//20 47//20 37//1
f 43//20 48//1 41//1
f 41//2 48//2 43//19
f 42//20 40//21 44//21
f 44//22 40//22 42//19
f 48//1 43//20 42//20
f 42//19 43//19 48//2
f 47//5 50//5 44//5
f 44//6 50//6 47//6
f 49//6 51//6 45//6
f 45//5 51//5 49//5
f 49//23 44//21 40//21
f 40//22 44//22 49//24
f 52//22 45//19 46//19
f 46//20 45//20 52//21
f 53//22 46//19 47//19
f 47//20 46//20 53//21
f 53//5 50//5 47//5
f 47//6 50//6 53//6
f 44//21 49//23 50//23
f 50//24 49//24 44//22
f 49//6 54//6 51//6
f 51//5 54//5 49//5
f 45//19 52//22 51//22
f 51//21 52//21 45//20
f 46//19 53//22 52//22
f 52//21 53//21 46//20
f 55//5 50//5 53//5
f 53//6 50//6 55//6
f 49//23 56//25 50//23
f 50//24 56//26 49//24
f 57//6 54//6 49//6
f 49//5 54//5 57//5
f 51//22 58//24 54//24
f 54//23 58//23 51//21
f 58//24 51//22 52//22
f 52//21 51//21 58//23
f 55//24 52//22 53//22
f 53//21 52//21 55//23
f 55//5 56//5 50//5
f 50//6 56//6 55//6
f 56//25 49//23 57//25
f 57//26 49//24 56//26
f 57//6 59//6 54//6
f 54//5 59//5 57//5
f 58//24 59//26 54//24
f 54//23 59//25 58//23
f 52//22 55//24 58//24
f 58//23 55//23 52//21
f 60//5 56//5 55//5
f 55//6 56//6 60//6
f 57//25 61//27 56//25
f 56//26 61//28 57//26
f 62//6 59//6 57//6
f 57//5 59//5 62//5
f 59//26 58//24 63//26
f 63//25 58//23 59//25
f 55//24 63//26 58//24
f 58//23 63//25 55//23
f 60//5 61//5 56//5
f 56//6 61//6 60//6
f 63//26 55//24 60//26
f 60//25 55//23 63//25
f 61//27 57//25 62//27
f 62//28 57//26 61//28
f 62//6 64//6 59//6
f 59//5 64//5 62//5
f 63//26 64//28 59//26
f 59//25 64//27 63//25
f 65//5 61//5 60//5
f 60//6 61//6 65//6
f 60//26 66//28 63//26
f 63//25 66//27 60//25
f 62//27 67//29 61//27
f 61//28 67//30 62//28
f 68//6 64//6 62//6
f 62//5 64//5 68//5
f 64//28 63//26 66//28
f 66//27 63//25 64//27
f 69//5 61//5 65//5
f 65//6 61//6 69//6
f 66//28 60//26 65//28
f 65//27 60//25 66//27
f 67//29 62//27 68//29
f 68//30 62//28 67//30
f 69//5 67//5 61//5
f 61//6 67//6 69//6
f 64//6 68//6 70//6
f 70//5 68//5 64//5
f 66//28 70//30 64//28
f 64//27 70//29 66//27
f 71//30 65//28 69//30
f 69//29 65//27 71//29
f 65//28 71//30 66//28
f 66//27 71//29 65//27
f 72//2 68//2 67//2
f 67//1 68//1 72//1
f 69//5 72//5 67//5
f 67//6 72//6 69//6
f 73//6 70//6 68//6
f 68//5 70//5 73//5
f 70//30 66//28 71//30
f 71//29 66//27 70//29
f 71//4 74//4 69//4
f 69//3 74//3 71//3
f 68//2 72//2 73//2
f 73//1 72//1 68//1
f 74//5 72//5 69//5
f 69//6 72//6 74//6
f 75//6 70//6 73//6
f 73//5 70//5 75//5
f 70//4 74//4 71//4
f 71//3 74//3 70//3
f 72//3 75//3 73//3
f 73//4 75//4 72//4
f 72//5 74//5 76//5
f 76//6 74//6 72//6
f 70//6 75//6 77//6
f 77//5 75//5 70//5
f 74//4 70//4 77//4
f 77//3 70//3 74//3
f 75//3 72//3 76//3
f 76//4 72//4 75//4
f 74//1 75//1 76//1
f 76//2 75//2 74//2
f 75//1 74//1 77//1
f 77//2 74//2 75//2
