# SSTK version 0.8.0
# 5
mtllib original-5.mtl
o Component_39_1/Component_39/mesh15/mesh15-geometry#mesh15-geometry
v 0.881888 0.293538 -0.154566
v 0.924516 0.229472 -0.110028
v 0.924516 0.293538 -0.110028
v 0.881888 0.229472 -0.154566
v 0.951781 0.229472 -0.054734
v 0.913461 0.293538 -0.195703
v 0.827842 0.229472 -0.184226
v 0.913461 0.229472 -0.195703
v 0.951781 0.293538 -0.054734
v 0.966997 0.229472 -0.139769
v 0.845585 0.293538 -0.232953
v 0.966997 0.293538 -0.139769
v 0.827842 0.293538 -0.184226
v 0.845585 0.229472 -0.232953
v 0.961158 0.229472 0.006199
v 0.767378 0.229472 -0.196264
v 0.769649 0.229472 -0.248070
v 0.961158 0.293538 0.006199
v 0.966997 0.229472 0.152166
v 0.769649 0.293538 -0.248070
v 0.767378 0.293538 -0.196264
v 1.001238 0.293538 -0.070326
v 0.951781 0.229472 0.067131
v 0.966997 0.293538 0.152166
v 1.001238 0.229472 -0.070326
v 0.713113 0.229472 -0.190332
v 0.697132 0.293538 -0.240143
v 1.001238 0.293538 0.082723
v 0.951781 0.293538 0.067131
v 0.924516 0.229472 0.122426
v 1.001238 0.229472 0.082723
v 0.717563 0.293538 -0.190818
v 0.692682 0.229472 -0.239657
v 1.013014 0.293538 0.006199
v 0.924516 0.293538 0.122426
v 0.913461 0.229472 0.208100
v 1.013014 0.229472 0.006199
v 0.913461 0.293538 0.208100
v 0.881888 0.229472 0.166963
v 0.881888 0.293538 0.166963
v 0.845585 0.229472 0.245350
v 0.845585 0.293538 0.245350
v 0.827842 0.229472 0.196623
v 0.827842 0.293538 0.196623
v 0.769649 0.229472 0.260468
v 0.769649 0.293538 0.260468
v 0.767378 0.229472 0.208661
v 0.767378 0.293538 0.208661
v 0.713113 0.229472 0.202729
v 0.692682 0.229472 0.252054
v 0.717563 0.293538 0.203215
v 0.697132 0.293538 0.252540
vn -0.6088479538879887 0 0.7932869399192259
vn -0.8191942408873786 0 0.5735161686447482
vn 0.8191942408873786 0 -0.5735161686447482
vn 0.6088479538879887 0 -0.7932869399192259
vn -0.9537279293168416 0 0.300670977716523
vn 0.9537279293168416 0 -0.300670977716523
vn 0 1 0
vn 0 -1 0
vn -0.3421578179014338 0 0.9396424999162869
vn 0.3421578179014338 0 -0.9396424999162869
vn -1 0 0
vn 1 0 0
vn -0.04380201014445912 0 0.9990402313757463
vn 0.04380201014445912 0 -0.9990402313757463
vn -0.9537279293168416 0 -0.300670977716523
vn 0.9537279293168416 0 0.300670977716523
vn 0.10866702244120945 0 0.9940782052905905
vn -0.10866702244120945 0 -0.9940782052905905
vn -0.8191942408873786 0 -0.5735161686447482
vn 0.8191942408873786 0 0.5735161686447482
vn -0.9218085642238614 0.06691796836517357 0.38182581949551375
vn 0.9218085642238614 -0.06691796836517357 -0.38182581949551375
vn 0.6088479538879887 0 0.7932869399192259
vn -0.6088479538879887 0 -0.7932869399192259
vn 0.3421578179014338 0 0.9396424999162869
vn -0.3421578179014338 0 -0.9396424999162869
vn 0.04380201014445912 0 0.9990402313757463
vn -0.04380201014445912 0 -0.9990402313757463
vn -0.10866702244120945 0 0.9940782052905905
vn 0.10866702244120945 0 -0.9940782052905905
vn -0.9218085642238614 0.06691796836517375 -0.38182581949551375
vn 0.9218085642238614 -0.06691796836517375 0.38182581949551375
usemtl material_0_0
f 1//1 2//2 3//2
f 2//2 1//1 4//1
f 3//3 2//3 1//4
f 4//4 1//4 2//3
f 5//5 3//2 2//2
f 2//3 3//3 5//6
f 6//7 1//7 3//7
f 3//8 1//8 6//8
f 1//1 7//9 4//1
f 4//4 7//10 1//4
f 4//8 8//8 2//8
f 2//7 8//7 4//7
f 3//2 5//5 9//5
f 9//6 5//6 3//3
f 2//8 10//8 5//8
f 5//7 10//7 2//7
f 11//7 1//7 6//7
f 6//8 1//8 11//8
f 6//7 3//7 12//7
f 12//8 3//8 6//8
f 7//9 1//1 13//9
f 13//10 1//4 7//10
f 7//8 14//8 4//8
f 4//7 14//7 7//7
f 4//8 14//8 8//8
f 8//7 14//7 4//7
f 2//8 8//8 10//8
f 10//7 8//7 2//7
f 15//11 9//5 5//5
f 5//6 9//6 15//12
f 12//7 3//7 9//7
f 9//8 3//8 12//8
f 5//8 10//8 15//8
f 15//7 10//7 5//7
f 11//7 13//7 1//7
f 1//8 13//8 11//8
f 8//4 11//10 6//4
f 6//1 11//9 8//1
f 12//3 8//4 6//4
f 6//1 8//1 12//2
f 13//9 16//13 7//9
f 7//10 16//14 13//10
f 7//8 17//8 14//8
f 14//7 17//7 7//7
f 11//10 8//4 14//10
f 14//9 8//1 11//9
f 8//4 12//3 10//3
f 10//2 12//2 8//1
f 9//5 15//11 18//11
f 18//12 15//12 9//6
f 12//7 9//7 18//7
f 18//8 9//8 12//8
f 19//8 15//8 10//8
f 10//7 15//7 19//7
f 20//7 13//7 11//7
f 11//8 13//8 20//8
f 16//13 13//9 21//13
f 21//14 13//10 16//14
f 16//8 17//8 7//8
f 7//7 17//7 16//7
f 20//14 14//10 17//14
f 17//13 14//9 20//13
f 14//10 20//14 11//10
f 11//9 20//13 14//9
f 22//6 10//3 12//3
f 12//2 10//2 22//5
f 23//15 18//11 15//11
f 15//12 18//12 23//16
f 12//7 18//7 24//7
f 24//8 18//8 12//8
f 19//8 23//8 15//8
f 15//7 23//7 19//7
f 19//8 10//8 25//8
f 25//7 10//7 19//7
f 20//7 21//7 13//7
f 13//8 21//8 20//8
f 21//13 26//17 16//13
f 16//14 26//18 21//14
f 26//8 17//8 16//8
f 16//7 17//7 26//7
f 17//14 27//18 20//14
f 20//13 27//17 17//13
f 10//3 22//6 25//6
f 25//5 22//5 10//2
f 12//7 28//7 22//7
f 22//8 28//8 12//8
f 18//11 23//15 29//15
f 29//16 23//16 18//12
f 29//7 24//7 18//7
f 18//8 24//8 29//8
f 12//7 24//7 28//7
f 28//8 24//8 12//8
f 19//8 30//8 23//8
f 23//7 30//7 19//7
f 19//8 25//8 31//8
f 31//7 25//7 19//7
f 20//7 32//7 21//7
f 21//8 32//8 20//8
f 26//17 21//13 32//17
f 32//18 21//14 26//18
f 17//8 26//8 33//8
f 33//7 26//7 17//7
f 27//18 17//14 33//18
f 33//17 17//13 27//17
f 32//7 20//7 27//7
f 27//8 20//8 32//8
f 34//12 25//6 22//6
f 22//5 25//5 34//11
f 22//7 28//7 34//7
f 34//8 28//8 22//8
f 30//19 29//15 23//15
f 23//16 29//16 30//20
f 35//7 24//7 29//7
f 29//8 24//8 35//8
f 24//20 31//16 28//16
f 28//15 31//15 24//19
f 36//8 30//8 19//8
f 19//7 30//7 36//7
f 31//8 25//8 37//8
f 37//7 25//7 31//7
f 31//16 24//20 19//20
f 19//19 24//19 31//15
f 32//21 33//21 26//21
f 26//22 33//22 32//22
f 33//21 32//21 27//21
f 27//22 32//22 33//22
f 25//6 34//12 37//12
f 37//11 34//11 25//5
f 28//16 37//12 34//12
f 34//11 37//11 28//15
f 29//15 30//19 35//19
f 35//20 30//20 29//16
f 35//7 38//7 24//7
f 24//8 38//8 35//8
f 37//12 28//16 31//16
f 31//15 28//15 37//11
f 36//8 39//8 30//8
f 30//7 39//7 36//7
f 19//20 38//23 36//23
f 36//24 38//24 19//19
f 38//23 19//20 24//20
f 24//19 19//19 38//24
f 39//24 35//19 30//19
f 30//20 35//20 39//23
f 40//7 38//7 35//7
f 35//8 38//8 40//8
f 41//8 39//8 36//8
f 36//7 39//7 41//7
f 38//23 41//25 36//23
f 36//24 41//26 38//24
f 35//19 39//24 40//24
f 40//23 39//23 35//20
f 40//7 42//7 38//7
f 38//8 42//8 40//8
f 41//8 43//8 39//8
f 39//7 43//7 41//7
f 41//25 38//23 42//25
f 42//26 38//24 41//26
f 43//26 40//24 39//24
f 39//23 40//23 43//25
f 44//7 42//7 40//7
f 40//8 42//8 44//8
f 45//8 43//8 41//8
f 41//7 43//7 45//7
f 42//25 45//27 41//25
f 41//26 45//28 42//26
f 40//24 43//26 44//26
f 44//25 43//25 40//23
f 44//7 46//7 42//7
f 42//8 46//8 44//8
f 45//8 47//8 43//8
f 43//7 47//7 45//7
f 45//27 42//25 46//27
f 46//28 42//26 45//28
f 43//26 48//28 44//26
f 44//25 48//27 43//25
f 48//7 46//7 44//7
f 44//8 46//8 48//8
f 45//8 49//8 47//8
f 47//7 49//7 45//7
f 48//28 43//26 47//28
f 47//27 43//25 48//27
f 46//27 50//29 45//27
f 45//28 50//30 46//28
f 51//7 46//7 48//7
f 48//8 46//8 51//8
f 49//8 45//8 50//8
f 50//7 45//7 49//7
f 51//30 47//28 49//30
f 49//29 47//27 51//29
f 47//28 51//30 48//28
f 48//27 51//29 47//27
f 50//29 46//27 52//29
f 52//30 46//28 50//30
f 46//7 51//7 52//7
f 52//8 51//8 46//8
f 50//31 51//31 49//31
f 49//32 51//32 50//32
f 51//31 50//31 52//31
f 52//32 50//32 51//32
