# SSTK version 0.8.0
# 82
mtllib original-82.mtl
o instance_15/side_panel/ID202#ID202
v 0.417174 0.294201 -0.434444
v 0.417174 -0.123868 0.401692
v 0.417174 0.294201 0.401692
v 0.417174 -0.123868 -0.434444
v 0.417174 -0.123868 -0.434444
v 0.417174 0.294201 -0.434444
v 0.417174 -0.123868 0.401692
v 0.417174 0.294201 0.401692
v 0.417174 -0.123868 -0.434444
v 0.417174 -0.541936 0.401692
v 0.417174 -0.123868 0.401692
v 0.417174 -0.541936 -0.434444
v 0.417174 -0.541936 -0.434444
v 0.417174 -0.123868 -0.434444
v 0.417174 -0.541936 0.401692
v 0.417174 -0.123868 0.401692
vt 7.277629 15.71608
vt 5.277629 16.71608
vt 5.277629 15.71608
vt 7.277629 16.71608
vt 5.277629 17.71608
vt 7.277629 17.71608
vn -1 0 0
vn 1 0 0
usemtl material_0_0
f 1/1/1 2/2/1 3/3/1
f 2/2/1 1/1/1 4/4/1
f 5/4/2 6/1/2 7/2/2
f 8/3/2 7/2/2 6/1/2
f 9/4/1 10/5/1 11/2/1
f 10/5/1 9/4/1 12/6/1
f 13/6/2 14/4/2 15/5/2
f 16/2/2 15/5/2 14/4/2
