# SSTK version 0.8.0
# 35
mtllib original-35.mtl
o #ID15
v 0.418091 -0.160708 -0.279694
v 0.418091 -0.239863 -0.297267
v 0.418091 -0.239863 -0.314930
v 0.418091 -0.457016 -0.297267
v 0.418091 -0.239863 -0.262120
v 0.418091 -0.457016 -0.262120
v 0.418091 -0.239863 -0.244458
v 0.418091 -0.160708 -0.279694
v 0.418091 -0.239863 -0.297267
v 0.418091 -0.239863 -0.244458
v 0.418091 -0.239863 -0.262120
v 0.418091 -0.457016 -0.297267
v 0.418091 -0.457016 -0.262120
v 0.418091 -0.239863 -0.314930
vn 1 0 0
vn -1 0 0
usemtl material_0_0
f 1//1 2//1 3//1
f 4//1 5//1 6//1
f 5//1 4//1 2//1
f 5//1 2//1 7//1
f 7//1 2//1 1//1
f 8//2 9//2 10//2
f 10//2 9//2 11//2
f 9//2 12//2 11//2
f 13//2 11//2 12//2
f 14//2 9//2 8//2
