# SSTK version 0.8.0
# 37
mtllib original-37.mtl
o #ID190
v 0.051083 -0.542480 -0.434988
v -0.000894 -0.542480 -0.434443
v 0.051083 -0.542480 -0.434443
v -0.029850 -0.542480 -0.434443
v -0.029850 -0.542480 -0.434988
v -0.029850 -0.542480 -0.434988
v 0.051083 -0.542480 -0.434988
v -0.029850 -0.542480 -0.434443
v -0.000894 -0.542480 -0.434443
v 0.051083 -0.542480 -0.434443
v -0.029850 -0.542480 -0.434988
v -0.029850 -0.541936 -0.434443
v -0.029850 -0.542480 -0.434443
v -0.029850 -0.457016 -0.434988
v -0.029850 -0.457016 -0.434443
v -0.029850 -0.457016 -0.434443
v -0.029850 -0.457016 -0.434988
v -0.029850 -0.541936 -0.434443
v -0.029850 -0.542480 -0.434988
v -0.029850 -0.542480 -0.434443
v 0.051083 -0.541936 -0.434443
v 0.051083 -0.542480 -0.434988
v 0.051083 -0.542480 -0.434443
v 0.051083 -0.468750 -0.434988
v 0.051083 -0.468750 -0.434443
v 0.051083 -0.468750 -0.434443
v 0.051083 -0.541936 -0.434443
v 0.051083 -0.468750 -0.434988
v 0.051083 -0.542480 -0.434988
v 0.051083 -0.542480 -0.434443
v 0.017594 -0.457016 -0.434988
v 0.051083 -0.542480 -0.434988
v 0.051083 -0.468750 -0.434988
v -0.029850 -0.542480 -0.434988
v -0.029850 -0.457016 -0.434988
v -0.029850 -0.457016 -0.434988
v 0.017594 -0.457016 -0.434988
v -0.029850 -0.542480 -0.434988
v 0.051083 -0.542480 -0.434988
v 0.051083 -0.468750 -0.434988
v -0.029850 -0.457016 -0.434988
v 0.017594 -0.457016 -0.434443
v -0.029850 -0.457016 -0.434443
v 0.017594 -0.457016 -0.434988
v 0.017594 -0.457016 -0.434988
v -0.029850 -0.457016 -0.434988
v 0.017594 -0.457016 -0.434443
v -0.029850 -0.457016 -0.434443
v 0.017594 -0.457016 -0.434988
v 0.051083 -0.468750 -0.434443
v 0.017594 -0.457016 -0.434443
v 0.051083 -0.468750 -0.434988
v 0.051083 -0.468750 -0.434988
v 0.017594 -0.457016 -0.434988
v 0.051083 -0.468750 -0.434443
v 0.017594 -0.457016 -0.434443
vn 0 1 0
vn 0 -1 0
vn 1 0 0
vn -1 0 0
vn 0 0 1
vn 0 0 -1
vn -0.3306814155645593 -0.9437424444202026 0
vn 0.3306814155645593 0.9437424444202026 0
usemtl material_0_0
f 1//1 2//1 3//1
f 2//1 1//1 4//1
f 4//1 1//1 5//1
f 6//2 7//2 8//2
f 8//2 7//2 9//2
f 10//2 9//2 7//2
f 11//3 12//3 13//3
f 12//3 11//3 14//3
f 12//3 14//3 15//3
f 16//4 17//4 18//4
f 17//4 19//4 18//4
f 20//4 18//4 19//4
f 21//4 22//4 23//4
f 22//4 21//4 24//4
f 24//4 21//4 25//4
f 26//3 27//3 28//3
f 28//3 27//3 29//3
f 30//3 29//3 27//3
f 31//5 32//5 33//5
f 32//5 31//5 34//5
f 34//5 31//5 35//5
f 36//6 37//6 38//6
f 38//6 37//6 39//6
f 40//6 39//6 37//6
f 41//2 42//2 43//2
f 42//2 41//2 44//2
f 45//1 46//1 47//1
f 48//1 47//1 46//1
f 49//7 50//7 51//7
f 50//7 49//7 52//7
f 53//8 54//8 55//8
f 56//8 55//8 54//8
