# SSTK version 0.8.0
# 19
mtllib original-19.mtl
o #ID95
v 0.417174 -0.346979 0.129069
v 0.417174 -0.381818 0.131543
v 0.417174 -0.346979 0.139294
v 0.417174 -0.366482 0.125388
v 0.417174 -0.381818 0.120987
v 0.417174 -0.346979 0.120000
v 0.417174 -0.359883 0.114900
v 0.417174 -0.346979 0.109812
v 0.417174 -0.381818 0.108789
v 0.417174 -0.366456 0.104410
v 0.417174 -0.381818 0.098233
v 0.417174 -0.346979 0.100725
v 0.417174 -0.346979 0.090553
v 0.417174 -0.346979 0.090553
v 0.417174 -0.346979 0.100725
v 0.417174 -0.381818 0.098233
v 0.417174 -0.366456 0.104410
v 0.417174 -0.381818 0.108789
v 0.417174 -0.346979 0.109812
v 0.417174 -0.359883 0.114900
v 0.417174 -0.346979 0.120000
v 0.417174 -0.381818 0.120987
v 0.417174 -0.366482 0.125388
v 0.417174 -0.381818 0.131543
v 0.417174 -0.346979 0.129069
v 0.417174 -0.346979 0.139294
v 0.417567 -0.346979 0.139294
v 0.417174 -0.346979 0.129069
v 0.417174 -0.346979 0.139294
v 0.417567 -0.346979 0.129069
v 0.417567 -0.346979 0.129069
v 0.417567 -0.346979 0.139294
v 0.417174 -0.346979 0.129069
v 0.417174 -0.346979 0.139294
v 0.417174 -0.346979 0.129069
v 0.417567 -0.366482 0.125388
v 0.417174 -0.366482 0.125388
v 0.417567 -0.346979 0.129069
v 0.417567 -0.346979 0.129069
v 0.417174 -0.346979 0.129069
v 0.417567 -0.366482 0.125388
v 0.417174 -0.366482 0.125388
v 0.417567 -0.346979 0.120000
v 0.417174 -0.366482 0.125388
v 0.417567 -0.366482 0.125388
v 0.417174 -0.346979 0.120000
v 0.417174 -0.346979 0.120000
v 0.417567 -0.346979 0.120000
v 0.417174 -0.366482 0.125388
v 0.417567 -0.366482 0.125388
v 0.417567 -0.346979 0.120000
v 0.417174 -0.346979 0.109812
v 0.417174 -0.346979 0.120000
v 0.417567 -0.346979 0.109812
v 0.417567 -0.346979 0.109812
v 0.417567 -0.346979 0.120000
v 0.417174 -0.346979 0.109812
v 0.417174 -0.346979 0.120000
v 0.417174 -0.346979 0.109812
v 0.417567 -0.366456 0.104410
v 0.417174 -0.366456 0.104410
v 0.417567 -0.346979 0.109812
v 0.417567 -0.346979 0.109812
v 0.417174 -0.346979 0.109812
v 0.417567 -0.366456 0.104410
v 0.417174 -0.366456 0.104410
v 0.417567 -0.346979 0.100725
v 0.417174 -0.366456 0.104410
v 0.417567 -0.366456 0.104410
v 0.417174 -0.346979 0.100725
v 0.417174 -0.346979 0.100725
v 0.417567 -0.346979 0.100725
v 0.417174 -0.366456 0.104410
v 0.417567 -0.366456 0.104410
v 0.417567 -0.346979 0.100725
v 0.417174 -0.346979 0.090553
v 0.417174 -0.346979 0.100725
v 0.417567 -0.346979 0.090553
v 0.417567 -0.346979 0.090553
v 0.417567 -0.346979 0.100725
v 0.417174 -0.346979 0.090553
v 0.417174 -0.346979 0.100725
v 0.417174 -0.346979 0.090553
v 0.417567 -0.381818 0.098233
v 0.417174 -0.381818 0.098233
v 0.417567 -0.346979 0.090553
v 0.417567 -0.346979 0.090553
v 0.417174 -0.346979 0.090553
v 0.417567 -0.381818 0.098233
v 0.417174 -0.381818 0.098233
v 0.417567 -0.381818 0.098233
v 0.417174 -0.381818 0.108789
v 0.417174 -0.381818 0.098233
v 0.417567 -0.381818 0.108789
v 0.417567 -0.381818 0.108789
v 0.417567 -0.381818 0.098233
v 0.417174 -0.381818 0.108789
v 0.417174 -0.381818 0.098233
v 0.417567 -0.359883 0.114900
v 0.417174 -0.381818 0.108789
v 0.417567 -0.381818 0.108789
v 0.417174 -0.359883 0.114900
v 0.417174 -0.359883 0.114900
v 0.417567 -0.359883 0.114900
v 0.417174 -0.381818 0.108789
v 0.417567 -0.381818 0.108789
v 0.417174 -0.359883 0.114900
v 0.417567 -0.381818 0.120987
v 0.417174 -0.381818 0.120987
v 0.417567 -0.359883 0.114900
v 0.417567 -0.359883 0.114900
v 0.417174 -0.359883 0.114900
v 0.417567 -0.381818 0.120987
v 0.417174 -0.381818 0.120987
v 0.417567 -0.381818 0.120987
v 0.417174 -0.381818 0.131543
v 0.417174 -0.381818 0.120987
v 0.417567 -0.381818 0.131543
v 0.417567 -0.381818 0.131543
v 0.417567 -0.381818 0.120987
v 0.417174 -0.381818 0.131543
v 0.417174 -0.381818 0.120987
v 0.417567 -0.346979 0.139294
v 0.417174 -0.381818 0.131543
v 0.417567 -0.381818 0.131543
v 0.417174 -0.346979 0.139294
v 0.417174 -0.346979 0.139294
v 0.417567 -0.346979 0.139294
v 0.417174 -0.381818 0.131543
v 0.417567 -0.381818 0.131543
v 0.417567 -0.381818 0.131543
v 0.417567 -0.346979 0.129069
v 0.417567 -0.346979 0.139294
v 0.417567 -0.366482 0.125388
v 0.417567 -0.381818 0.120987
v 0.417567 -0.346979 0.120000
v 0.417567 -0.359883 0.114900
v 0.417567 -0.346979 0.109812
v 0.417567 -0.381818 0.108789
v 0.417567 -0.366456 0.104410
v 0.417567 -0.381818 0.098233
v 0.417567 -0.346979 0.100725
v 0.417567 -0.346979 0.090553
v 0.417567 -0.346979 0.090553
v 0.417567 -0.381818 0.098233
v 0.417567 -0.346979 0.100725
v 0.417567 -0.366456 0.104410
v 0.417567 -0.381818 0.108789
v 0.417567 -0.346979 0.109812
v 0.417567 -0.359883 0.114900
v 0.417567 -0.346979 0.120000
v 0.417567 -0.381818 0.120987
v 0.417567 -0.366482 0.125388
v 0.417567 -0.381818 0.131543
v 0.417567 -0.346979 0.129069
v 0.417567 -0.346979 0.139294
vn -1 0 0
vn 1 0 0
vn 0 1 0
vn 0 -1 0
vn 0 0.18547330075850038 -0.9826493040275085
vn 0 -0.18547330075850038 0.9826493040275085
vn 0 0.2662759138517979 0.963896850136149
vn 0 -0.2662759138517979 -0.963896850136149
vn 0 0.26722029123460284 -0.9636354683968903
vn 0 -0.26722029123460284 0.9636354683968903
vn 0 0.18591120918492568 0.9825665485347028
vn 0 -0.18591120918492568 -0.9825665485347028
vn 0 -0.21526601076220941 -0.9765554488151322
vn 0 0.21526601076220941 0.9765554488151322
vn 0 -0.2683570082464587 0.9633195296084317
vn 0 0.2683570082464587 -0.9633195296084317
vn 0 -0.267388104784524 -0.963588917235841
vn 0 0.267388104784524 0.963588917235841
vn 0 -0.21717059242129677 0.9761336659430321
vn 0 0.21717059242129677 -0.9761336659430321
usemtl material_0_0
f 1//1 2//1 3//1
f 2//1 1//1 4//1
f 2//1 4//1 5//1
f 5//1 4//1 6//1
f 5//1 6//1 7//1
f 7//1 6//1 8//1
f 7//1 8//1 9//1
f 9//1 8//1 10//1
f 9//1 10//1 11//1
f 11//1 10//1 12//1
f 11//1 12//1 13//1
f 14//2 15//2 16//2
f 15//2 17//2 16//2
f 16//2 17//2 18//2
f 17//2 19//2 18//2
f 18//2 19//2 20//2
f 19//2 21//2 20//2
f 20//2 21//2 22//2
f 21//2 23//2 22//2
f 22//2 23//2 24//2
f 23//2 25//2 24//2
f 26//2 24//2 25//2
f 27//3 28//3 29//3
f 28//3 27//3 30//3
f 31//4 32//4 33//4
f 34//4 33//4 32//4
f 35//5 36//5 37//5
f 36//5 35//5 38//5
f 39//6 40//6 41//6
f 42//6 41//6 40//6
f 43//7 44//7 45//7
f 44//7 43//7 46//7
f 47//8 48//8 49//8
f 50//8 49//8 48//8
f 51//3 52//3 53//3
f 52//3 51//3 54//3
f 55//4 56//4 57//4
f 58//4 57//4 56//4
f 59//9 60//9 61//9
f 60//9 59//9 62//9
f 63//10 64//10 65//10
f 66//10 65//10 64//10
f 67//11 68//11 69//11
f 68//11 67//11 70//11
f 71//12 72//12 73//12
f 74//12 73//12 72//12
f 75//3 76//3 77//3
f 76//3 75//3 78//3
f 79//4 80//4 81//4
f 82//4 81//4 80//4
f 83//13 84//13 85//13
f 84//13 83//13 86//13
f 87//14 88//14 89//14
f 90//14 89//14 88//14
f 91//4 92//4 93//4
f 92//4 91//4 94//4
f 95//3 96//3 97//3
f 98//3 97//3 96//3
f 99//15 100//15 101//15
f 100//15 99//15 102//15
f 103//16 104//16 105//16
f 106//16 105//16 104//16
f 107//17 108//17 109//17
f 108//17 107//17 110//17
f 111//18 112//18 113//18
f 114//18 113//18 112//18
f 115//4 116//4 117//4
f 116//4 115//4 118//4
f 119//3 120//3 121//3
f 122//3 121//3 120//3
f 123//19 124//19 125//19
f 124//19 123//19 126//19
f 127//20 128//20 129//20
f 130//20 129//20 128//20
f 131//2 132//2 133//2
f 132//2 131//2 134//2
f 134//2 131//2 135//2
f 134//2 135//2 136//2
f 136//2 135//2 137//2
f 136//2 137//2 138//2
f 138//2 137//2 139//2
f 138//2 139//2 140//2
f 140//2 139//2 141//2
f 140//2 141//2 142//2
f 142//2 141//2 143//2
f 144//1 145//1 146//1
f 146//1 145//1 147//1
f 145//1 148//1 147//1
f 147//1 148//1 149//1
f 148//1 150//1 149//1
f 149//1 150//1 151//1
f 150//1 152//1 151//1
f 151//1 152//1 153//1
f 152//1 154//1 153//1
f 153//1 154//1 155//1
f 156//1 155//1 154//1
