# SSTK version 0.8.0
# 38
mtllib original-38.mtl
o group_3/ID182#ID182
v 0.051083 -0.542480 0.401693
v 0.051083 -0.541936 0.402237
v 0.051083 -0.542480 0.402237
v 0.051083 -0.541936 0.401693
v 0.051083 -0.541936 0.401693
v 0.051083 -0.542480 0.401693
v 0.051083 -0.541936 0.402237
v 0.051083 -0.542480 0.402237
v 0.051083 -0.541936 0.401693
v 0.058134 -0.487959 0.402237
v 0.051083 -0.541936 0.402237
v 0.058134 -0.487959 0.401693
v 0.058134 -0.487959 0.401693
v 0.051083 -0.541936 0.401693
v 0.058134 -0.487959 0.402237
v 0.051083 -0.541936 0.402237
v -0.021441 -0.477563 0.402237
v 0.051083 -0.541936 0.402237
v 0.058134 -0.487959 0.402237
v 0.051083 -0.542480 0.402237
v -0.000894 -0.542480 0.402237
v -0.029850 -0.542480 0.402237
v -0.029850 -0.541936 0.402237
v -0.029850 -0.541936 0.402237
v -0.021441 -0.477563 0.402237
v -0.029850 -0.542480 0.402237
v -0.000894 -0.542480 0.402237
v 0.051083 -0.542480 0.402237
v 0.051083 -0.541936 0.402237
v 0.058134 -0.487959 0.402237
v -0.029850 -0.542480 0.402237
v 0.051083 -0.542480 0.402237
v -0.000894 -0.542480 0.402237
v -0.029850 -0.542480 0.401693
v 0.051083 -0.542480 0.401693
v -0.029850 -0.542480 -0.434443
v 0.051083 -0.542480 -0.434443
v 0.051083 -0.542480 -0.434443
v -0.029850 -0.542480 -0.434443
v 0.051083 -0.542480 0.401693
v -0.029850 -0.542480 0.401693
v 0.051083 -0.542480 0.402237
v -0.029850 -0.542480 0.402237
v -0.000894 -0.542480 0.402237
v 0.051083 -0.542480 -0.434443
v 0.051083 -0.541936 0.401693
v 0.051083 -0.542480 0.401693
v 0.051083 -0.541936 -0.434443
v 0.051083 -0.541936 -0.434443
v 0.051083 -0.542480 -0.434443
v 0.051083 -0.541936 0.401693
v 0.051083 -0.542480 0.401693
v 0.058134 -0.487959 0.401693
v -0.021441 -0.477563 0.402237
v 0.058134 -0.487959 0.402237
v -0.021441 -0.477563 0.401693
v -0.021441 -0.477563 0.401693
v 0.058134 -0.487959 0.401693
v -0.021441 -0.477563 0.402237
v 0.058134 -0.487959 0.402237
v -0.021441 -0.477563 0.402237
v -0.029850 -0.541936 0.401693
v -0.029850 -0.541936 0.402237
v -0.021441 -0.477563 0.401693
v -0.021441 -0.477563 0.401693
v -0.021441 -0.477563 0.402237
v -0.029850 -0.541936 0.401693
v -0.029850 -0.541936 0.402237
v -0.029850 -0.541936 0.402237
v -0.029850 -0.542480 0.401693
v -0.029850 -0.542480 0.402237
v -0.029850 -0.541936 0.401693
v -0.029850 -0.541936 0.401693
v -0.029850 -0.541936 0.402237
v -0.029850 -0.542480 0.401693
v -0.029850 -0.542480 0.402237
v -0.029850 -0.541936 0.401693
v -0.029850 -0.542480 -0.434443
v -0.029850 -0.542480 0.401693
v -0.029850 -0.541936 -0.434443
v -0.029850 -0.541936 -0.434443
v -0.029850 -0.541936 0.401693
v -0.029850 -0.542480 -0.434443
v -0.029850 -0.542480 0.401693
vn 1 0 0
vn -1 0 0
vn 0.9915745104789545 -0.12953760136895262 0
vn -0.9915745104789545 0.12953760136895262 0
vn 0 0 1
vn 0 0 -1
vn 0 -1 0
vn 0 1 0
vn 0.1295376013689525 0.9915745104789545 0
vn -0.1295376013689525 -0.9915745104789545 0
usemtl material_0_0
f 1//1 2//1 3//1
f 2//1 1//1 4//1
f 5//2 6//2 7//2
f 8//2 7//2 6//2
f 9//3 10//3 11//3
f 10//3 9//3 12//3
f 13//4 14//4 15//4
f 16//4 15//4 14//4
f 17//5 18//5 19//5
f 18//5 17//5 20//5
f 20//5 17//5 21//5
f 21//5 17//5 22//5
f 22//5 17//5 23//5
f 24//6 25//6 26//6
f 26//6 25//6 27//6
f 27//6 25//6 28//6
f 28//6 25//6 29//6
f 30//6 29//6 25//6
f 31//7 32//7 33//7
f 32//7 31//7 34//7
f 32//7 34//7 35//7
f 35//7 34//7 36//7
f 35//7 36//7 37//7
f 38//8 39//8 40//8
f 39//8 41//8 40//8
f 40//8 41//8 42//8
f 41//8 43//8 42//8
f 44//8 42//8 43//8
f 45//1 46//1 47//1
f 46//1 45//1 48//1
f 49//2 50//2 51//2
f 52//2 51//2 50//2
f 53//9 54//9 55//9
f 54//9 53//9 56//9
f 57//10 58//10 59//10
f 60//10 59//10 58//10
f 61//4 62//4 63//4
f 62//4 61//4 64//4
f 65//3 66//3 67//3
f 68//3 67//3 66//3
f 69//2 70//2 71//2
f 70//2 69//2 72//2
f 73//1 74//1 75//1
f 76//1 75//1 74//1
f 77//2 78//2 79//2
f 78//2 77//2 80//2
f 81//1 82//1 83//1
f 84//1 83//1 82//1
