# SSTK version 0.8.0
# 44
mtllib original-44.mtl
o #ID23
v -0.419021 -0.244173 -0.130026
v -0.419021 -0.251658 -0.119213
v -0.419021 -0.279012 -0.130026
v -0.419021 -0.244173 -0.103409
v -0.419021 -0.251658 -0.103409
v -0.419021 -0.257742 -0.105714
v -0.419021 -0.264777 -0.119213
v -0.419021 -0.257742 -0.119213
v -0.419021 -0.264777 -0.105714
v -0.419021 -0.279012 -0.119213
v -0.419021 -0.264777 -0.119213
v -0.419021 -0.257742 -0.119213
v -0.419021 -0.279012 -0.119213
v -0.419021 -0.251658 -0.119213
v -0.419021 -0.279012 -0.130026
v -0.419021 -0.264777 -0.105714
v -0.419021 -0.257742 -0.105714
v -0.419021 -0.251658 -0.103409
v -0.419021 -0.244173 -0.103409
v -0.419021 -0.244173 -0.130026
v -0.419414 -0.244173 -0.130026
v -0.419021 -0.244173 -0.103409
v -0.419021 -0.244173 -0.130026
v -0.419414 -0.244173 -0.103409
v -0.419414 -0.244173 -0.103409
v -0.419414 -0.244173 -0.130026
v -0.419021 -0.244173 -0.103409
v -0.419021 -0.244173 -0.130026
v -0.419021 -0.244173 -0.103409
v -0.419414 -0.251658 -0.103409
v -0.419021 -0.251658 -0.103409
v -0.419414 -0.244173 -0.103409
v -0.419414 -0.244173 -0.103409
v -0.419021 -0.244173 -0.103409
v -0.419414 -0.251658 -0.103409
v -0.419021 -0.251658 -0.103409
v -0.419414 -0.251658 -0.103409
v -0.419021 -0.251658 -0.119213
v -0.419021 -0.251658 -0.103409
v -0.419414 -0.251658 -0.119213
v -0.419414 -0.251658 -0.119213
v -0.419414 -0.251658 -0.103409
v -0.419021 -0.251658 -0.119213
v -0.419021 -0.251658 -0.103409
v -0.419021 -0.251658 -0.119213
v -0.419414 -0.257742 -0.119213
v -0.419021 -0.257742 -0.119213
v -0.419414 -0.251658 -0.119213
v -0.419414 -0.251658 -0.119213
v -0.419021 -0.251658 -0.119213
v -0.419414 -0.257742 -0.119213
v -0.419021 -0.257742 -0.119213
v -0.419414 -0.257742 -0.119213
v -0.419021 -0.257742 -0.105714
v -0.419021 -0.257742 -0.119213
v -0.419414 -0.257742 -0.105714
v -0.419414 -0.257742 -0.105714
v -0.419414 -0.257742 -0.119213
v -0.419021 -0.257742 -0.105714
v -0.419021 -0.257742 -0.119213
v -0.419021 -0.257742 -0.105714
v -0.419414 -0.264777 -0.105714
v -0.419021 -0.264777 -0.105714
v -0.419414 -0.257742 -0.105714
v -0.419414 -0.257742 -0.105714
v -0.419021 -0.257742 -0.105714
v -0.419414 -0.264777 -0.105714
v -0.419021 -0.264777 -0.105714
v -0.419414 -0.264777 -0.105714
v -0.419021 -0.264777 -0.119213
v -0.419021 -0.264777 -0.105714
v -0.419414 -0.264777 -0.119213
v -0.419414 -0.264777 -0.119213
v -0.419414 -0.264777 -0.105714
v -0.419021 -0.264777 -0.119213
v -0.419021 -0.264777 -0.105714
v -0.419021 -0.264777 -0.119213
v -0.419414 -0.279012 -0.119213
v -0.419021 -0.279012 -0.119213
v -0.419414 -0.264777 -0.119213
v -0.419414 -0.264777 -0.119213
v -0.419021 -0.264777 -0.119213
v -0.419414 -0.279012 -0.119213
v -0.419021 -0.279012 -0.119213
v -0.419414 -0.279012 -0.119213
v -0.419021 -0.279012 -0.130026
v -0.419021 -0.279012 -0.119213
v -0.419414 -0.279012 -0.130026
v -0.419414 -0.279012 -0.130026
v -0.419414 -0.279012 -0.119213
v -0.419021 -0.279012 -0.130026
v -0.419021 -0.279012 -0.119213
v -0.419414 -0.244173 -0.130026
v -0.419021 -0.279012 -0.130026
v -0.419414 -0.279012 -0.130026
v -0.419021 -0.244173 -0.130026
v -0.419021 -0.244173 -0.130026
v -0.419414 -0.244173 -0.130026
v -0.419021 -0.279012 -0.130026
v -0.419414 -0.279012 -0.130026
v -0.419414 -0.264777 -0.105714
v -0.419414 -0.257742 -0.119213
v -0.419414 -0.264777 -0.119213
v -0.419414 -0.257742 -0.105714
v -0.419414 -0.279012 -0.119213
v -0.419414 -0.244173 -0.130026
v -0.419414 -0.279012 -0.130026
v -0.419414 -0.251658 -0.119213
v -0.419414 -0.244173 -0.103409
v -0.419414 -0.251658 -0.103409
v -0.419414 -0.251658 -0.103409
v -0.419414 -0.251658 -0.119213
v -0.419414 -0.244173 -0.103409
v -0.419414 -0.257742 -0.119213
v -0.419414 -0.264777 -0.119213
v -0.419414 -0.279012 -0.119213
v -0.419414 -0.244173 -0.130026
v -0.419414 -0.279012 -0.130026
v -0.419414 -0.257742 -0.105714
v -0.419414 -0.264777 -0.105714
vn 1 0 0
vn -1 0 0
vn 0 1 0
vn 0 -1 0
vn 0 0 1
vn 0 0 -1
usemtl material_0_0
f 1//1 2//1 3//1
f 2//1 1//1 4//1
f 2//1 4//1 5//1
f 6//1 7//1 8//1
f 7//1 6//1 9//1
f 2//1 10//1 3//1
f 10//1 2//1 8//1
f 10//1 8//1 7//1
f 11//2 12//2 13//2
f 12//2 14//2 13//2
f 15//2 13//2 14//2
f 16//2 17//2 11//2
f 12//2 11//2 17//2
f 18//2 19//2 14//2
f 19//2 20//2 14//2
f 15//2 14//2 20//2
f 21//3 22//3 23//3
f 22//3 21//3 24//3
f 25//4 26//4 27//4
f 28//4 27//4 26//4
f 29//5 30//5 31//5
f 30//5 29//5 32//5
f 33//6 34//6 35//6
f 36//6 35//6 34//6
f 37//4 38//4 39//4
f 38//4 37//4 40//4
f 41//3 42//3 43//3
f 44//3 43//3 42//3
f 45//5 46//5 47//5
f 46//5 45//5 48//5
f 49//6 50//6 51//6
f 52//6 51//6 50//6
f 53//3 54//3 55//3
f 54//3 53//3 56//3
f 57//4 58//4 59//4
f 60//4 59//4 58//4
f 61//5 62//5 63//5
f 62//5 61//5 64//5
f 65//6 66//6 67//6
f 68//6 67//6 66//6
f 69//4 70//4 71//4
f 70//4 69//4 72//4
f 73//3 74//3 75//3
f 76//3 75//3 74//3
f 77//5 78//5 79//5
f 78//5 77//5 80//5
f 81//6 82//6 83//6
f 84//6 83//6 82//6
f 85//4 86//4 87//4
f 86//4 85//4 88//4
f 89//3 90//3 91//3
f 92//3 91//3 90//3
f 93//6 94//6 95//6
f 94//6 93//6 96//6
f 97//5 98//5 99//5
f 100//5 99//5 98//5
f 101//2 102//2 103//2
f 102//2 101//2 104//2
f 105//2 106//2 107//2
f 106//2 105//2 108//2
f 106//2 108//2 109//2
f 108//2 105//2 103//2
f 108//2 103//2 102//2
f 109//2 108//2 110//2
f 111//1 112//1 113//1
f 114//1 115//1 112//1
f 115//1 116//1 112//1
f 113//1 112//1 117//1
f 112//1 116//1 117//1
f 118//1 117//1 116//1
f 119//1 120//1 114//1
f 115//1 114//1 120//1
