# SSTK version 0.8.0
# 11
mtllib original-11.mtl
o #ID47
v 0.417174 -0.244173 -0.081028
v 0.417174 -0.279012 -0.070263
v 0.417174 -0.244173 -0.070263
v 0.417174 -0.270433 -0.081028
v 0.417174 -0.279012 -0.097830
v 0.417174 -0.270433 -0.097830
v 0.417174 -0.270433 -0.097830
v 0.417174 -0.270433 -0.081028
v 0.417174 -0.279012 -0.097830
v 0.417174 -0.279012 -0.070263
v 0.417174 -0.244173 -0.081028
v 0.417174 -0.244173 -0.070263
v 0.417567 -0.244173 -0.070263
v 0.417174 -0.244173 -0.081028
v 0.417174 -0.244173 -0.070263
v 0.417567 -0.244173 -0.081028
v 0.417567 -0.244173 -0.081028
v 0.417567 -0.244173 -0.070263
v 0.417174 -0.244173 -0.081028
v 0.417174 -0.244173 -0.070263
v 0.417174 -0.244173 -0.081028
v 0.417567 -0.270433 -0.081028
v 0.417174 -0.270433 -0.081028
v 0.417567 -0.244173 -0.081028
v 0.417567 -0.244173 -0.081028
v 0.417174 -0.244173 -0.081028
v 0.417567 -0.270433 -0.081028
v 0.417174 -0.270433 -0.081028
v 0.417567 -0.270433 -0.081028
v 0.417174 -0.270433 -0.097830
v 0.417174 -0.270433 -0.081028
v 0.417567 -0.270433 -0.097830
v 0.417567 -0.270433 -0.097830
v 0.417567 -0.270433 -0.081028
v 0.417174 -0.270433 -0.097830
v 0.417174 -0.270433 -0.081028
v 0.417174 -0.270433 -0.097830
v 0.417567 -0.279012 -0.097830
v 0.417174 -0.279012 -0.097830
v 0.417567 -0.270433 -0.097830
v 0.417567 -0.270433 -0.097830
v 0.417174 -0.270433 -0.097830
v 0.417567 -0.279012 -0.097830
v 0.417174 -0.279012 -0.097830
v 0.417567 -0.279012 -0.097830
v 0.417174 -0.279012 -0.070263
v 0.417174 -0.279012 -0.097830
v 0.417567 -0.279012 -0.070263
v 0.417567 -0.279012 -0.070263
v 0.417567 -0.279012 -0.097830
v 0.417174 -0.279012 -0.070263
v 0.417174 -0.279012 -0.097830
v 0.417567 -0.244173 -0.070263
v 0.417174 -0.279012 -0.070263
v 0.417567 -0.279012 -0.070263
v 0.417174 -0.244173 -0.070263
v 0.417174 -0.244173 -0.070263
v 0.417567 -0.244173 -0.070263
v 0.417174 -0.279012 -0.070263
v 0.417567 -0.279012 -0.070263
v 0.417567 -0.279012 -0.070263
v 0.417567 -0.270433 -0.081028
v 0.417567 -0.244173 -0.070263
v 0.417567 -0.279012 -0.097830
v 0.417567 -0.270433 -0.097830
v 0.417567 -0.244173 -0.081028
v 0.417567 -0.270433 -0.081028
v 0.417567 -0.244173 -0.070263
v 0.417567 -0.244173 -0.081028
v 0.417567 -0.270433 -0.097830
v 0.417567 -0.279012 -0.097830
v 0.417567 -0.279012 -0.070263
vn -1 0 0
vn 1 0 0
vn 0 1 0
vn 0 -1 0
vn 0 0 -1
vn 0 0 1
usemtl material_0_0
f 1//1 2//1 3//1
f 2//1 1//1 4//1
f 2//1 4//1 5//1
f 5//1 4//1 6//1
f 7//2 8//2 9//2
f 9//2 8//2 10//2
f 8//2 11//2 10//2
f 12//2 10//2 11//2
f 13//3 14//3 15//3
f 14//3 13//3 16//3
f 17//4 18//4 19//4
f 20//4 19//4 18//4
f 21//5 22//5 23//5
f 22//5 21//5 24//5
f 25//6 26//6 27//6
f 28//6 27//6 26//6
f 29//3 30//3 31//3
f 30//3 29//3 32//3
f 33//4 34//4 35//4
f 36//4 35//4 34//4
f 37//5 38//5 39//5
f 38//5 37//5 40//5
f 41//6 42//6 43//6
f 44//6 43//6 42//6
f 45//4 46//4 47//4
f 46//4 45//4 48//4
f 49//3 50//3 51//3
f 52//3 51//3 50//3
f 53//6 54//6 55//6
f 54//6 53//6 56//6
f 57//5 58//5 59//5
f 60//5 59//5 58//5
f 61//2 62//2 63//2
f 62//2 61//2 64//2
f 62//2 64//2 65//2
f 66//2 63//2 62//2
f 67//1 68//1 69//1
f 70//1 71//1 67//1
f 71//1 72//1 67//1
f 68//1 67//1 72//1
