# SSTK version 0.8.0
# 45
mtllib original-45.mtl
o #ID29
v -0.419021 -0.245028 -0.071897
v -0.419021 -0.263636 -0.074445
v -0.419021 -0.244386 -0.075123
v -0.419021 -0.263018 -0.072299
v -0.419021 -0.262257 -0.070664
v -0.419021 -0.246249 -0.069515
v -0.419021 -0.260751 -0.068732
v -0.419021 -0.248201 -0.067643
v -0.419021 -0.258847 -0.067264
v -0.419021 -0.250770 -0.066431
v -0.419021 -0.256545 -0.066337
v -0.419021 -0.253845 -0.066027
v -0.419021 -0.244173 -0.097468
v -0.419021 -0.251207 -0.086655
v -0.419021 -0.279012 -0.097468
v -0.419021 -0.244173 -0.079526
v -0.419021 -0.251207 -0.081926
v -0.419021 -0.251433 -0.079449
v -0.419021 -0.252110 -0.077910
v -0.419021 -0.253209 -0.077108
v -0.419021 -0.254700 -0.076840
v -0.419021 -0.279012 -0.075364
v -0.419021 -0.279012 -0.063247
v -0.419021 -0.264920 -0.071643
v -0.419021 -0.266752 -0.069921
v -0.419021 -0.268916 -0.068413
v -0.419021 -0.279012 -0.063199
v -0.419021 -0.258289 -0.082116
v -0.419021 -0.264872 -0.086655
v -0.419021 -0.258289 -0.086655
v -0.419021 -0.264872 -0.085705
v -0.419021 -0.265074 -0.084308
v -0.419021 -0.265680 -0.083067
v -0.419021 -0.266660 -0.082152
v -0.419021 -0.268365 -0.081118
v -0.419021 -0.257813 -0.079264
v -0.419021 -0.257433 -0.078293
v -0.419021 -0.256720 -0.077518
v -0.419021 -0.255776 -0.077010
v -0.419021 -0.279012 -0.086655
v -0.419021 -0.264872 -0.086655
v -0.419021 -0.258289 -0.086655
v -0.419021 -0.279012 -0.086655
v -0.419021 -0.251207 -0.086655
v -0.419021 -0.279012 -0.097468
v -0.419021 -0.254700 -0.076840
v -0.419021 -0.255776 -0.077010
v -0.419021 -0.279012 -0.075364
v -0.419021 -0.256720 -0.077518
v -0.419021 -0.257433 -0.078293
v -0.419021 -0.257813 -0.079264
v -0.419021 -0.268365 -0.081118
v -0.419021 -0.258289 -0.082116
v -0.419021 -0.266660 -0.082152
v -0.419021 -0.265680 -0.083067
v -0.419021 -0.265074 -0.084308
v -0.419021 -0.264872 -0.085705
v -0.419021 -0.279012 -0.063199
v -0.419021 -0.268916 -0.068413
v -0.419021 -0.279012 -0.063247
v -0.419021 -0.266752 -0.069921
v -0.419021 -0.264920 -0.071643
v -0.419021 -0.263636 -0.074445
v -0.419021 -0.244386 -0.075123
v -0.419021 -0.253209 -0.077108
v -0.419021 -0.252110 -0.077910
v -0.419021 -0.251433 -0.079449
v -0.419021 -0.244173 -0.079526
v -0.419021 -0.251207 -0.081926
v -0.419021 -0.244173 -0.097468
v -0.419021 -0.253845 -0.066027
v -0.419021 -0.250770 -0.066431
v -0.419021 -0.256545 -0.066337
v -0.419021 -0.258847 -0.067264
v -0.419021 -0.248201 -0.067643
v -0.419021 -0.260751 -0.068732
v -0.419021 -0.246249 -0.069515
v -0.419021 -0.262257 -0.070664
v -0.419021 -0.245028 -0.071897
v -0.419021 -0.263018 -0.072299
v -0.419414 -0.244173 -0.097468
v -0.419021 -0.279012 -0.097468
v -0.419414 -0.279012 -0.097468
v -0.419021 -0.244173 -0.097468
v -0.419021 -0.244173 -0.097468
v -0.419414 -0.244173 -0.097468
v -0.419021 -0.279012 -0.097468
v -0.419414 -0.279012 -0.097468
v -0.419414 -0.244173 -0.097468
v -0.419021 -0.244173 -0.079526
v -0.419021 -0.244173 -0.097468
v -0.419414 -0.244173 -0.079526
v -0.419414 -0.244173 -0.079526
v -0.419414 -0.244173 -0.097468
v -0.419021 -0.244173 -0.079526
v -0.419021 -0.244173 -0.097468
v -0.419021 -0.244386 -0.075123
v -0.419414 -0.244386 -0.075123
v -0.419414 -0.244386 -0.075123
v -0.419021 -0.244386 -0.075123
v -0.419021 -0.245028 -0.071897
v -0.419414 -0.245028 -0.071897
v -0.419414 -0.245028 -0.071897
v -0.419021 -0.245028 -0.071897
v -0.419021 -0.246249 -0.069515
v -0.419414 -0.246249 -0.069515
v -0.419414 -0.246249 -0.069515
v -0.419021 -0.246249 -0.069515
v -0.419414 -0.248201 -0.067643
v -0.419021 -0.248201 -0.067643
v -0.419414 -0.248201 -0.067643
v -0.419021 -0.248201 -0.067643
v -0.419414 -0.250770 -0.066431
v -0.419021 -0.250770 -0.066431
v -0.419414 -0.250770 -0.066431
v -0.419021 -0.250770 -0.066431
v -0.419414 -0.253845 -0.066027
v -0.419021 -0.253845 -0.066027
v -0.419414 -0.253845 -0.066027
v -0.419021 -0.253845 -0.066027
v -0.419414 -0.256545 -0.066337
v -0.419021 -0.256545 -0.066337
v -0.419414 -0.256545 -0.066337
v -0.419021 -0.256545 -0.066337
v -0.419414 -0.258847 -0.067264
v -0.419021 -0.258847 -0.067264
v -0.419414 -0.258847 -0.067264
v -0.419021 -0.258847 -0.067264
v -0.419414 -0.260751 -0.068732
v -0.419021 -0.260751 -0.068732
v -0.419414 -0.260751 -0.068732
v -0.419021 -0.260751 -0.068732
v -0.419021 -0.262257 -0.070664
v -0.419414 -0.262257 -0.070664
v -0.419414 -0.262257 -0.070664
v -0.419021 -0.262257 -0.070664
v -0.419021 -0.263018 -0.072299
v -0.419414 -0.263018 -0.072299
v -0.419414 -0.263018 -0.072299
v -0.419021 -0.263018 -0.072299
v -0.419021 -0.263636 -0.074445
v -0.419414 -0.263636 -0.074445
v -0.419414 -0.263636 -0.074445
v -0.419021 -0.263636 -0.074445
v -0.419414 -0.263636 -0.074445
v -0.419021 -0.264920 -0.071643
v -0.419021 -0.263636 -0.074445
v -0.419414 -0.264920 -0.071643
v -0.419414 -0.264920 -0.071643
v -0.419414 -0.263636 -0.074445
v -0.419021 -0.264920 -0.071643
v -0.419021 -0.263636 -0.074445
v -0.419414 -0.266752 -0.069921
v -0.419021 -0.266752 -0.069921
v -0.419414 -0.266752 -0.069921
v -0.419021 -0.266752 -0.069921
v -0.419414 -0.268916 -0.068413
v -0.419021 -0.268916 -0.068413
v -0.419414 -0.268916 -0.068413
v -0.419021 -0.268916 -0.068413
v -0.419414 -0.279012 -0.063199
v -0.419021 -0.279012 -0.063199
v -0.419414 -0.278958 -0.063227
v -0.419414 -0.278958 -0.063227
v -0.419414 -0.279012 -0.063199
v -0.419021 -0.279012 -0.063199
v -0.419021 -0.244173 -0.050153
v -0.419021 -0.253203 -0.044413
v -0.419021 -0.265727 -0.048219
v -0.419021 -0.244173 -0.038410
v -0.419021 -0.265727 -0.040568
v -0.419021 -0.279012 -0.052255
v -0.419021 -0.273261 -0.050557
v -0.419021 -0.273261 -0.038335
v -0.419021 -0.279012 -0.025319
v -0.419021 -0.279012 -0.036592
v -0.419021 -0.279012 -0.036592
v -0.419021 -0.279012 -0.025319
v -0.419021 -0.273261 -0.038335
v -0.419021 -0.244173 -0.038410
v -0.419021 -0.265727 -0.040568
v -0.419021 -0.265727 -0.048219
v -0.419021 -0.273261 -0.050557
v -0.419021 -0.244173 -0.050153
v -0.419021 -0.279012 -0.052255
v -0.419021 -0.253203 -0.044413
v -0.419414 -0.279012 -0.063199
v -0.419021 -0.279012 -0.063247
v -0.419021 -0.279012 -0.063199
v -0.419414 -0.279012 -0.063247
v -0.419414 -0.279012 -0.063247
v -0.419414 -0.279012 -0.063199
v -0.419021 -0.279012 -0.063247
v -0.419021 -0.279012 -0.063199
v -0.419021 -0.279012 -0.075364
v -0.419414 -0.279012 -0.075364
v -0.419414 -0.279012 -0.075364
v -0.419021 -0.279012 -0.075364
v -0.419414 -0.268365 -0.081118
v -0.419021 -0.279012 -0.075364
v -0.419414 -0.279012 -0.075364
v -0.419021 -0.268365 -0.081118
v -0.419021 -0.268365 -0.081118
v -0.419414 -0.268365 -0.081118
v -0.419021 -0.279012 -0.075364
v -0.419414 -0.279012 -0.075364
v -0.419414 -0.266660 -0.082152
v -0.419021 -0.266660 -0.082152
v -0.419021 -0.266660 -0.082152
v -0.419414 -0.266660 -0.082152
v -0.419414 -0.265680 -0.083067
v -0.419021 -0.265680 -0.083067
v -0.419021 -0.265680 -0.083067
v -0.419414 -0.265680 -0.083067
v -0.419021 -0.265074 -0.084308
v -0.419414 -0.265074 -0.084308
v -0.419414 -0.265074 -0.084308
v -0.419021 -0.265074 -0.084308
v -0.419021 -0.264872 -0.085705
v -0.419414 -0.264872 -0.085705
v -0.419414 -0.264872 -0.085705
v -0.419021 -0.264872 -0.085705
v -0.419021 -0.264872 -0.086655
v -0.419414 -0.264872 -0.086655
v -0.419414 -0.264872 -0.086655
v -0.419021 -0.264872 -0.086655
v -0.419021 -0.264872 -0.086655
v -0.419414 -0.279012 -0.086655
v -0.419021 -0.279012 -0.086655
v -0.419414 -0.264872 -0.086655
v -0.419414 -0.264872 -0.086655
v -0.419021 -0.264872 -0.086655
v -0.419414 -0.279012 -0.086655
v -0.419021 -0.279012 -0.086655
v -0.419414 -0.279012 -0.086655
v -0.419021 -0.279012 -0.097468
v -0.419021 -0.279012 -0.086655
v -0.419414 -0.279012 -0.097468
v -0.419414 -0.279012 -0.097468
v -0.419414 -0.279012 -0.086655
v -0.419021 -0.279012 -0.097468
v -0.419021 -0.279012 -0.086655
v -0.419414 -0.264872 -0.085705
v -0.419414 -0.258289 -0.086655
v -0.419414 -0.264872 -0.086655
v -0.419414 -0.258289 -0.082116
v -0.419414 -0.265074 -0.084308
v -0.419414 -0.265680 -0.083067
v -0.419414 -0.266660 -0.082152
v -0.419414 -0.268365 -0.081118
v -0.419414 -0.257813 -0.079264
v -0.419414 -0.279012 -0.075364
v -0.419414 -0.257433 -0.078293
v -0.419414 -0.256720 -0.077518
v -0.419414 -0.255776 -0.077010
v -0.419414 -0.254700 -0.076840
v -0.419414 -0.279012 -0.086655
v -0.419414 -0.244173 -0.097468
v -0.419414 -0.279012 -0.097468
v -0.419414 -0.251207 -0.086655
v -0.419414 -0.244173 -0.079526
v -0.419414 -0.251207 -0.081926
v -0.419414 -0.251433 -0.079449
v -0.419414 -0.244386 -0.075123
v -0.419414 -0.252110 -0.077910
v -0.419414 -0.253209 -0.077108
v -0.419414 -0.263636 -0.074445
v -0.419414 -0.279012 -0.063247
v -0.419414 -0.264920 -0.071643
v -0.419414 -0.266752 -0.069921
v -0.419414 -0.268916 -0.068413
v -0.419414 -0.278958 -0.063227
v -0.419414 -0.245028 -0.071897
v -0.419414 -0.263018 -0.072299
v -0.419414 -0.262257 -0.070664
v -0.419414 -0.246249 -0.069515
v -0.419414 -0.260751 -0.068732
v -0.419414 -0.248201 -0.067643
v -0.419414 -0.258847 -0.067264
v -0.419414 -0.250770 -0.066431
v -0.419414 -0.256545 -0.066337
v -0.419414 -0.253845 -0.066027
v -0.419414 -0.253845 -0.066027
v -0.419414 -0.256545 -0.066337
v -0.419414 -0.250770 -0.066431
v -0.419414 -0.258847 -0.067264
v -0.419414 -0.248201 -0.067643
v -0.419414 -0.260751 -0.068732
v -0.419414 -0.246249 -0.069515
v -0.419414 -0.262257 -0.070664
v -0.419414 -0.245028 -0.071897
v -0.419414 -0.263018 -0.072299
v -0.419414 -0.263636 -0.074445
v -0.419414 -0.244386 -0.075123
v -0.419414 -0.278958 -0.063227
v -0.419414 -0.279012 -0.063247
v -0.419414 -0.268916 -0.068413
v -0.419414 -0.266752 -0.069921
v -0.419414 -0.264920 -0.071643
v -0.419414 -0.279012 -0.075364
v -0.419414 -0.254700 -0.076840
v -0.419414 -0.253209 -0.077108
v -0.419414 -0.252110 -0.077910
v -0.419414 -0.251433 -0.079449
v -0.419414 -0.244173 -0.079526
v -0.419414 -0.251207 -0.081926
v -0.419414 -0.251207 -0.086655
v -0.419414 -0.258289 -0.086655
v -0.419414 -0.264872 -0.086655
v -0.419414 -0.279012 -0.086655
v -0.419414 -0.244173 -0.097468
v -0.419414 -0.279012 -0.097468
v -0.419414 -0.255776 -0.077010
v -0.419414 -0.256720 -0.077518
v -0.419414 -0.257433 -0.078293
v -0.419414 -0.257813 -0.079264
v -0.419414 -0.268365 -0.081118
v -0.419414 -0.258289 -0.082116
v -0.419414 -0.266660 -0.082152
v -0.419414 -0.265680 -0.083067
v -0.419414 -0.265074 -0.084308
v -0.419414 -0.264872 -0.085705
v -0.419414 -0.279012 -0.063199
v -0.419414 -0.244173 -0.050153
v -0.419414 -0.279012 -0.052255
v -0.419414 -0.273261 -0.050557
v -0.419414 -0.265727 -0.048219
v -0.419414 -0.273261 -0.038335
v -0.419414 -0.265727 -0.040568
v -0.419414 -0.244173 -0.038410
v -0.419414 -0.279012 -0.025319
v -0.419414 -0.279012 -0.036592
v -0.419414 -0.253203 -0.044413
v -0.419414 -0.265727 -0.040568
v -0.419414 -0.253203 -0.044413
v -0.419414 -0.244173 -0.038410
v -0.419414 -0.265727 -0.048219
v -0.419414 -0.244173 -0.050153
v -0.419414 -0.279012 -0.036592
v -0.419414 -0.273261 -0.038335
v -0.419414 -0.279012 -0.025319
v -0.419414 -0.273261 -0.050557
v -0.419414 -0.279012 -0.052255
v -0.419414 -0.279012 -0.063199
v -0.419414 -0.279012 -0.052255
v -0.419021 -0.279012 -0.052255
v -0.419414 -0.279012 -0.052255
v -0.419021 -0.279012 -0.052255
v -0.419414 -0.273261 -0.038335
v -0.419021 -0.273261 -0.050557
v -0.419021 -0.273261 -0.038335
v -0.419414 -0.273261 -0.050557
v -0.419414 -0.273261 -0.050557
v -0.419414 -0.273261 -0.038335
v -0.419021 -0.273261 -0.050557
v -0.419021 -0.273261 -0.038335
v -0.419021 -0.273261 -0.050557
v -0.419414 -0.279012 -0.052255
v -0.419021 -0.279012 -0.052255
v -0.419414 -0.273261 -0.050557
v -0.419414 -0.273261 -0.050557
v -0.419021 -0.273261 -0.050557
v -0.419414 -0.279012 -0.052255
v -0.419021 -0.279012 -0.052255
v -0.419414 -0.278958 -0.063227
v -0.419021 -0.279012 -0.063247
v -0.419414 -0.279012 -0.063247
v -0.419021 -0.244173 -0.050153
v -0.419414 -0.244173 -0.050153
v -0.419414 -0.244173 -0.050153
v -0.419414 -0.278958 -0.063227
v -0.419021 -0.244173 -0.050153
v -0.419021 -0.279012 -0.063247
v -0.419414 -0.279012 -0.063247
v -0.419414 -0.244173 -0.050153
v -0.419021 -0.244173 -0.038410
v -0.419021 -0.244173 -0.050153
v -0.419414 -0.244173 -0.038410
v -0.419414 -0.244173 -0.038410
v -0.419414 -0.244173 -0.050153
v -0.419021 -0.244173 -0.038410
v -0.419021 -0.244173 -0.050153
v -0.419021 -0.244173 -0.038410
v -0.419414 -0.279012 -0.025319
v -0.419021 -0.279012 -0.025319
v -0.419414 -0.244173 -0.038410
v -0.419414 -0.244173 -0.038410
v -0.419021 -0.244173 -0.038410
v -0.419414 -0.279012 -0.025319
v -0.419021 -0.279012 -0.025319
v -0.419414 -0.279012 -0.025319
v -0.419021 -0.279012 -0.036592
v -0.419021 -0.279012 -0.025319
v -0.419414 -0.279012 -0.036592
v -0.419414 -0.279012 -0.036592
v -0.419414 -0.279012 -0.025319
v -0.419021 -0.279012 -0.036592
v -0.419021 -0.279012 -0.025319
v -0.419414 -0.273261 -0.038335
v -0.419021 -0.279012 -0.036592
v -0.419414 -0.279012 -0.036592
v -0.419021 -0.273261 -0.038335
v -0.419021 -0.273261 -0.038335
v -0.419414 -0.273261 -0.038335
v -0.419021 -0.279012 -0.036592
v -0.419414 -0.279012 -0.036592
vn 1 0 0
vn -1 0 0
vn 0 0 -1
vn 0 0 1
vn 0 1 0
vn 0 0.999705439415747 0.02427003095524716
vn 0 -0.999705439415747 -0.02427003095524716
vn 0 -1 0
vn 0 0.9925137182476018 0.12213320224377999
vn 0 -0.9925137182476018 -0.12213320224377999
vn 0 0.944425821556686 0.3287246075014441
vn 0 -0.944425821556686 -0.3287246075014441
vn 0 0.8021115823544539 0.5971741868607804
vn 0 -0.8021115823544539 -0.5971741868607804
vn 0 0.566768018122423 0.823877426340582
vn 0 -0.566768018122423 -0.823877426340582
vn 0 0.2818221857946888 0.9594666516319907
vn 0 -0.2818221857946888 -0.9594666516319907
vn 0 0.008334133755825262 0.9999652705042009
vn 0 -0.008334133755825262 -0.9999652705042009
vn 0 -0.24591210786158008 0.9692921309940956
vn 0 0.24591210786158008 -0.9692921309940956
vn 0 -0.4967986258888267 0.8678658452289579
vn 0 0.4967986258888267 -0.8678658452289579
vn 0 -0.7052322029347784 0.7089764029527073
vn 0 0.7052322029347784 -0.7089764029527073
vn 0 -0.8531553035964272 0.5216570022009558
vn 0 0.8531553035964272 -0.5216570022009558
vn 0 -0.936643911475083 0.3502830042931813
vn 0 0.936643911475083 -0.3502830042931813
vn 0 -0.9609635461463338 0.2766750132879059
vn 0 0.9609635461463338 -0.2766750132879059
vn 0 0.9090667056690618 0.4166506025964677
vn 0 0.8121242835998159 0.5834844882149703
vn 0 -0.8121242835998159 -0.5834844882149703
vn 0 -0.9090667056690618 -0.4166506025964677
vn 0 0.6299543018390735 0.7766322022646533
vn 0 -0.6299543018390735 -0.7766322022646533
vn 0 0.5163470988595756 0.8563793981053607
vn 0 -0.5163470988595756 -0.8563793981053607
vn 0 0.45884938215700943 0.8885140654452977
vn 0 -0.45884938215700943 -0.8885140654452977
vn 0 -0.49711129317064773 -0.8676867880763232
vn 0 -0.4754843029465755 -0.8797242054481673
vn 0 0.49711129317064773 0.8676867880763232
vn 0 0.4754843029465755 0.8797242054481673
vn 0 -0.6035720625585291 -0.7973084505377095
vn 0 0.6035720625585291 0.7973084505377095
vn 0 -0.8039135169246948 -0.5947462125190613
vn 0 0.8039135169246948 0.5947462125190613
vn 0 -0.9556732951525815 -0.29442919850484767
vn 0 0.9556732951525815 0.29442919850484767
vn 0 -0.9974204796113149 -0.07178012853105276
vn 0 0.9974204796113149 0.07178012853105276
vn 0 -0.2831752911093516 0.9590681698946817
vn 0 0.2831752911093516 -0.9590681698946817
vn 0 0.35182310244083076 -0.9360665064988217
vn 0 -0.35182310244083076 0.9360665064988217
vn 0 0.35175319227668406 0.9360927794418469
vn 0 -0.35175319227668406 -0.9360927794418469
vn 0 -0.2900450938811966 -0.9570129798051059
vn 0 0.2900450938811966 0.9570129798051059
usemtl material_0_0
f 1//1 2//1 3//1
f 2//1 1//1 4//1
f 4//1 1//1 5//1
f 5//1 1//1 6//1
f 5//1 6//1 7//1
f 7//1 6//1 8//1
f 7//1 8//1 9//1
f 9//1 8//1 10//1
f 9//1 10//1 11//1
f 11//1 10//1 12//1
f 13//1 14//1 15//1
f 14//1 13//1 16//1
f 14//1 16//1 17//1
f 17//1 16//1 18//1
f 18//1 16//1 3//1
f 18//1 3//1 19//1
f 19//1 3//1 20//1
f 20//1 3//1 21//1
f 21//1 3//1 22//1
f 22//1 3//1 2//1
f 22//1 2//1 23//1
f 23//1 2//1 24//1
f 23//1 24//1 25//1
f 23//1 25//1 26//1
f 23//1 26//1 27//1
f 28//1 29//1 30//1
f 29//1 28//1 31//1
f 31//1 28//1 32//1
f 32//1 28//1 33//1
f 33//1 28//1 34//1
f 34//1 28//1 35//1
f 35//1 28//1 36//1
f 35//1 36//1 22//1
f 22//1 36//1 37//1
f 22//1 37//1 38//1
f 22//1 38//1 39//1
f 22//1 39//1 21//1
f 14//1 40//1 15//1
f 40//1 14//1 30//1
f 40//1 30//1 29//1
f 41//2 42//2 43//2
f 42//2 44//2 43//2
f 45//2 43//2 44//2
f 46//2 47//2 48//2
f 47//2 49//2 48//2
f 49//2 50//2 48//2
f 50//2 51//2 48//2
f 48//2 51//2 52//2
f 51//2 53//2 52//2
f 52//2 53//2 54//2
f 54//2 53//2 55//2
f 55//2 53//2 56//2
f 56//2 53//2 57//2
f 57//2 53//2 41//2
f 42//2 41//2 53//2
f 58//2 59//2 60//2
f 59//2 61//2 60//2
f 61//2 62//2 60//2
f 62//2 63//2 60//2
f 60//2 63//2 48//2
f 63//2 64//2 48//2
f 48//2 64//2 46//2
f 46//2 64//2 65//2
f 65//2 64//2 66//2
f 66//2 64//2 67//2
f 64//2 68//2 67//2
f 67//2 68//2 69//2
f 69//2 68//2 44//2
f 68//2 70//2 44//2
f 45//2 44//2 70//2
f 71//2 72//2 73//2
f 73//2 72//2 74//2
f 72//2 75//2 74//2
f 74//2 75//2 76//2
f 75//2 77//2 76//2
f 76//2 77//2 78//2
f 77//2 79//2 78//2
f 78//2 79//2 80//2
f 80//2 79//2 63//2
f 64//2 63//2 79//2
f 81//3 82//3 83//3
f 82//3 81//3 84//3
f 85//4 86//4 87//4
f 88//4 87//4 86//4
f 89//5 90//6 91//5
f 90//6 89//5 92//6
f 93//7 94//8 95//7
f 96//8 95//7 94//8
f 92//6 97//9 90//6
f 97//9 92//6 98//9
f 99//10 93//7 100//10
f 95//7 100//10 93//7
f 98//9 101//11 97//9
f 101//11 98//9 102//11
f 103//12 99//10 104//12
f 100//10 104//12 99//10
f 102//11 105//13 101//11
f 105//13 102//11 106//13
f 107//14 103//12 108//14
f 104//12 108//14 103//12
f 105//13 109//15 110//15
f 109//15 105//13 106//13
f 107//14 108//14 111//16
f 112//16 111//16 108//14
f 110//15 113//17 114//17
f 113//17 110//15 109//15
f 111//16 112//16 115//18
f 116//18 115//18 112//16
f 114//17 117//19 118//19
f 117//19 114//17 113//17
f 115//18 116//18 119//20
f 120//20 119//20 116//18
f 118//19 121//21 122//21
f 121//21 118//19 117//19
f 119//20 120//20 123//22
f 124//22 123//22 120//20
f 122//21 125//23 126//23
f 125//23 122//21 121//21
f 123//22 124//22 127//24
f 128//24 127//24 124//22
f 126//23 129//25 130//25
f 129//25 126//23 125//23
f 127//24 128//24 131//26
f 132//26 131//26 128//24
f 129//25 133//27 130//25
f 133//27 129//25 134//27
f 135//28 131//26 136//28
f 132//26 136//28 131//26
f 134//27 137//29 133//27
f 137//29 134//27 138//29
f 139//30 135//28 140//30
f 136//28 140//30 135//28
f 138//29 141//31 137//29
f 141//31 138//29 142//31
f 143//32 139//30 144//32
f 140//30 144//32 139//30
f 145//33 146//34 147//33
f 146//34 145//33 148//34
f 149//35 150//36 151//35
f 152//36 151//35 150//36
f 146//34 153//37 154//37
f 153//37 146//34 148//34
f 149//35 151//35 155//38
f 156//38 155//38 151//35
f 154//37 157//39 158//39
f 157//39 154//37 153//37
f 155//38 156//38 159//40
f 160//40 159//40 156//38
f 158//39 161//41 162//41
f 161//41 158//39 163//41
f 163//41 158//39 157//39
f 159//40 160//40 164//42
f 164//42 160//40 165//42
f 166//42 165//42 160//40
f 167//1 168//1 169//1
f 168//1 167//1 170//1
f 168//1 170//1 171//1
f 167//1 27//1 23//1
f 27//1 167//1 172//1
f 172//1 167//1 173//1
f 173//1 167//1 169//1
f 173//1 169//1 174//1
f 174//1 169//1 171//1
f 174//1 171//1 170//1
f 174//1 170//1 175//1
f 174//1 175//1 176//1
f 177//2 178//2 179//2
f 178//2 180//2 179//2
f 180//2 181//2 179//2
f 181//2 182//2 179//2
f 179//2 182//2 183//2
f 182//2 184//2 183//2
f 183//2 184//2 185//2
f 185//2 184//2 58//2
f 60//2 58//2 184//2
f 181//2 180//2 186//2
f 180//2 184//2 186//2
f 182//2 186//2 184//2
f 187//8 188//8 189//8
f 188//8 187//8 190//8
f 191//5 192//5 193//5
f 194//5 193//5 192//5
f 190//8 195//8 188//8
f 195//8 190//8 196//8
f 197//5 191//5 198//5
f 193//5 198//5 191//5
f 199//43 200//44 201//44
f 200//44 199//43 202//43
f 203//45 204//45 205//46
f 206//46 205//46 204//45
f 207//47 202//43 199//43
f 202//43 207//47 208//47
f 209//48 210//48 203//45
f 204//45 203//45 210//48
f 211//49 208//47 207//47
f 208//47 211//49 212//49
f 213//50 214//50 209//48
f 210//48 209//48 214//50
f 211//49 215//51 212//49
f 215//51 211//49 216//51
f 217//52 214//50 218//52
f 213//50 218//52 214//50
f 216//51 219//53 215//51
f 219//53 216//51 220//53
f 221//54 217//52 222//54
f 218//52 222//54 217//52
f 220//53 223//8 219//53
f 223//8 220//53 224//8
f 225//5 221//54 226//5
f 222//54 226//5 221//54
f 227//4 228//4 229//4
f 228//4 227//4 230//4
f 231//3 232//3 233//3
f 234//3 233//3 232//3
f 235//8 236//8 237//8
f 236//8 235//8 238//8
f 239//5 240//5 241//5
f 242//5 241//5 240//5
f 243//2 244//2 245//2
f 244//2 243//2 246//2
f 246//2 243//2 247//2
f 246//2 247//2 248//2
f 246//2 248//2 249//2
f 246//2 249//2 250//2
f 246//2 250//2 251//2
f 251//2 250//2 252//2
f 251//2 252//2 253//2
f 253//2 252//2 254//2
f 254//2 252//2 255//2
f 255//2 252//2 256//2
f 257//2 258//2 259//2
f 258//2 257//2 260//2
f 258//2 260//2 261//2
f 260//2 257//2 245//2
f 260//2 245//2 244//2
f 261//2 260//2 262//2
f 261//2 262//2 263//2
f 261//2 263//2 264//2
f 264//2 263//2 265//2
f 264//2 265//2 266//2
f 264//2 266//2 256//2
f 264//2 256//2 252//2
f 264//2 252//2 267//2
f 267//2 252//2 268//2
f 267//2 268//2 269//2
f 269//2 268//2 270//2
f 270//2 268//2 271//2
f 271//2 268//2 272//2
f 267//2 273//2 264//2
f 273//2 267//2 274//2
f 273//2 274//2 275//2
f 273//2 275//2 276//2
f 276//2 275//2 277//2
f 276//2 277//2 278//2
f 278//2 277//2 279//2
f 278//2 279//2 280//2
f 280//2 279//2 281//2
f 280//2 281//2 282//2
f 283//1 284//1 285//1
f 284//1 286//1 285//1
f 285//1 286//1 287//1
f 286//1 288//1 287//1
f 287//1 288//1 289//1
f 288//1 290//1 289//1
f 289//1 290//1 291//1
f 290//1 292//1 291//1
f 292//1 293//1 291//1
f 294//1 291//1 293//1
f 295//1 296//1 297//1
f 297//1 296//1 298//1
f 298//1 296//1 299//1
f 299//1 296//1 293//1
f 296//1 300//1 293//1
f 293//1 300//1 294//1
f 300//1 301//1 294//1
f 301//1 302//1 294//1
f 302//1 303//1 294//1
f 303//1 304//1 294//1
f 294//1 304//1 305//1
f 304//1 306//1 305//1
f 306//1 307//1 305//1
f 308//1 309//1 307//1
f 309//1 310//1 307//1
f 305//1 307//1 311//1
f 307//1 310//1 311//1
f 312//1 311//1 310//1
f 301//1 300//1 313//1
f 313//1 300//1 314//1
f 314//1 300//1 315//1
f 315//1 300//1 316//1
f 300//1 317//1 316//1
f 316//1 317//1 318//1
f 317//1 319//1 318//1
f 319//1 320//1 318//1
f 320//1 321//1 318//1
f 321//1 322//1 318//1
f 318//1 322//1 308//1
f 309//1 308//1 322//1
f 323//2 324//2 272//2
f 324//2 323//2 325//2
f 324//2 325//2 326//2
f 324//2 326//2 327//2
f 327//2 326//2 328//2
f 327//2 328//2 329//2
f 329//2 328//2 330//2
f 330//2 328//2 331//2
f 331//2 328//2 332//2
f 324//2 333//2 330//2
f 333//2 324//2 327//2
f 330//2 333//2 329//2
f 334//1 335//1 336//1
f 337//1 338//1 335//1
f 336//1 335//1 338//1
f 339//1 340//1 341//1
f 341//1 340//1 336//1
f 336//1 340//1 334//1
f 334//1 340//1 337//1
f 340//1 342//1 337//1
f 337//1 342//1 338//1
f 342//1 343//1 338//1
f 343//1 344//1 338//1
f 295//1 338//1 344//1
f 345//8 189//8 346//8
f 189//8 345//8 187//8
f 192//5 347//5 194//5
f 348//5 194//5 347//5
f 349//8 350//8 351//8
f 350//8 349//8 352//8
f 353//5 354//5 355//5
f 356//5 355//5 354//5
f 357//55 358//55 359//55
f 358//55 357//55 360//55
f 361//56 362//56 363//56
f 364//56 363//56 362//56
f 365//57 366//57 367//57
f 366//57 365//57 368//57
f 368//57 365//57 369//57
f 370//58 371//58 372//58
f 372//58 371//58 373//58
f 374//58 373//58 371//58
f 375//5 376//5 377//5
f 376//5 375//5 378//5
f 379//8 380//8 381//8
f 382//8 381//8 380//8
f 383//59 384//59 385//59
f 384//59 383//59 386//59
f 387//60 388//60 389//60
f 390//60 389//60 388//60
f 391//8 392//8 393//8
f 392//8 391//8 394//8
f 395//5 396//5 397//5
f 398//5 397//5 396//5
f 399//61 400//61 401//61
f 400//61 399//61 402//61
f 403//62 404//62 405//62
f 406//62 405//62 404//62
