# SSTK version 0.8.0
# 53
mtllib original-53.mtl
o #ID77
v -0.419021 -0.295576 -0.005558
v -0.419021 -0.303465 0.005207
v -0.419021 -0.330415 -0.005558
v -0.419021 -0.295576 0.010435
v -0.419021 -0.303465 0.007893
v -0.419021 -0.303593 0.009835
v -0.419021 -0.303976 0.011481
v -0.419021 -0.295896 0.014710
v -0.419021 -0.304615 0.012830
v -0.419021 -0.305509 0.013881
v -0.419021 -0.306749 0.014671
v -0.419021 -0.308426 0.015236
v -0.419021 -0.296859 0.018076
v -0.419021 -0.310540 0.015574
v -0.419021 -0.313090 0.015687
v -0.419021 -0.329464 0.016852
v -0.419021 -0.328427 0.019359
v -0.419021 -0.298421 0.020734
v -0.419021 -0.326695 0.021700
v -0.419021 -0.300542 0.022888
v -0.419021 -0.324366 0.023711
v -0.419021 -0.303139 0.024528
v -0.419021 -0.321538 0.025229
v -0.419021 -0.306127 0.025645
v -0.419021 -0.317834 0.026182
v -0.419021 -0.309407 0.026286
v -0.419021 -0.312876 0.026500
v -0.419021 -0.322501 0.005207
v -0.419021 -0.330415 0.010435
v -0.419021 -0.322501 0.007845
v -0.419021 -0.322314 0.010732
v -0.419021 -0.330177 0.013477
v -0.419021 -0.321752 0.012646
v -0.419021 -0.320725 0.013917
v -0.419021 -0.319138 0.014879
v -0.419021 -0.316693 0.015485
v -0.419021 -0.313090 0.015687
v -0.419021 -0.316693 0.015485
v -0.419021 -0.329464 0.016852
v -0.419021 -0.319138 0.014879
v -0.419021 -0.320725 0.013917
v -0.419021 -0.330177 0.013477
v -0.419021 -0.321752 0.012646
v -0.419021 -0.322314 0.010732
v -0.419021 -0.330415 0.010435
v -0.419021 -0.322501 0.007845
v -0.419021 -0.322501 0.005207
v -0.419021 -0.303465 0.005207
v -0.419021 -0.330415 -0.005558
v -0.419021 -0.312876 0.026500
v -0.419021 -0.309407 0.026286
v -0.419021 -0.317834 0.026182
v -0.419021 -0.306127 0.025645
v -0.419021 -0.321538 0.025229
v -0.419021 -0.303139 0.024528
v -0.419021 -0.324366 0.023711
v -0.419021 -0.300542 0.022888
v -0.419021 -0.326695 0.021700
v -0.419021 -0.298421 0.020734
v -0.419021 -0.328427 0.019359
v -0.419021 -0.296859 0.018076
v -0.419021 -0.310540 0.015574
v -0.419021 -0.308426 0.015236
v -0.419021 -0.295896 0.014710
v -0.419021 -0.306749 0.014671
v -0.419021 -0.305509 0.013881
v -0.419021 -0.304615 0.012830
v -0.419021 -0.303976 0.011481
v -0.419021 -0.295576 0.010435
v -0.419021 -0.303593 0.009835
v -0.419021 -0.303465 0.007893
v -0.419021 -0.295576 -0.005558
v -0.419414 -0.295576 -0.005558
v -0.419021 -0.295576 0.010435
v -0.419021 -0.295576 -0.005558
v -0.419414 -0.295576 0.010435
v -0.419414 -0.295576 0.010435
v -0.419414 -0.295576 -0.005558
v -0.419021 -0.295576 0.010435
v -0.419021 -0.295576 -0.005558
v -0.419021 -0.295896 0.014710
v -0.419414 -0.295896 0.014710
v -0.419414 -0.295896 0.014710
v -0.419021 -0.295896 0.014710
v -0.419021 -0.296859 0.018076
v -0.419414 -0.296859 0.018076
v -0.419414 -0.296859 0.018076
v -0.419021 -0.296859 0.018076
v -0.419021 -0.298421 0.020734
v -0.419414 -0.298421 0.020734
v -0.419414 -0.298421 0.020734
v -0.419021 -0.298421 0.020734
v -0.419021 -0.300542 0.022888
v -0.419414 -0.300542 0.022888
v -0.419414 -0.300542 0.022888
v -0.419021 -0.300542 0.022888
v -0.419414 -0.303139 0.024528
v -0.419021 -0.303139 0.024528
v -0.419414 -0.303139 0.024528
v -0.419021 -0.303139 0.024528
v -0.419414 -0.306127 0.025645
v -0.419021 -0.306127 0.025645
v -0.419414 -0.306127 0.025645
v -0.419021 -0.306127 0.025645
v -0.419414 -0.309407 0.026286
v -0.419021 -0.309407 0.026286
v -0.419414 -0.309407 0.026286
v -0.419021 -0.309407 0.026286
v -0.419414 -0.312876 0.026500
v -0.419021 -0.312876 0.026500
v -0.419414 -0.312876 0.026500
v -0.419021 -0.312876 0.026500
v -0.419414 -0.317834 0.026182
v -0.419021 -0.317834 0.026182
v -0.419414 -0.317834 0.026182
v -0.419021 -0.317834 0.026182
v -0.419414 -0.321538 0.025229
v -0.419021 -0.321538 0.025229
v -0.419414 -0.321538 0.025229
v -0.419021 -0.321538 0.025229
v -0.419414 -0.324366 0.023711
v -0.419021 -0.324366 0.023711
v -0.419414 -0.324366 0.023711
v -0.419021 -0.324366 0.023711
v -0.419414 -0.326695 0.021700
v -0.419021 -0.326695 0.021700
v -0.419414 -0.326695 0.021700
v -0.419021 -0.326695 0.021700
v -0.419021 -0.328427 0.019359
v -0.419414 -0.328427 0.019359
v -0.419414 -0.328427 0.019359
v -0.419021 -0.328427 0.019359
v -0.419021 -0.329464 0.016852
v -0.419414 -0.329464 0.016852
v -0.419414 -0.329464 0.016852
v -0.419021 -0.329464 0.016852
v -0.419021 -0.330177 0.013477
v -0.419414 -0.330177 0.013477
v -0.419414 -0.330177 0.013477
v -0.419021 -0.330177 0.013477
v -0.419021 -0.330415 0.010435
v -0.419414 -0.330415 0.010435
v -0.419414 -0.330415 0.010435
v -0.419021 -0.330415 0.010435
v -0.419021 -0.330415 -0.005558
v -0.419414 -0.330415 -0.005558
v -0.419414 -0.330415 -0.005558
v -0.419021 -0.330415 -0.005558
v -0.419414 -0.295576 -0.005558
v -0.419021 -0.330415 -0.005558
v -0.419414 -0.330415 -0.005558
v -0.419021 -0.295576 -0.005558
v -0.419021 -0.295576 -0.005558
v -0.419414 -0.295576 -0.005558
v -0.419021 -0.330415 -0.005558
v -0.419414 -0.330415 -0.005558
v -0.419414 -0.330415 -0.005558
v -0.419414 -0.322501 0.005207
v -0.419414 -0.295576 -0.005558
v -0.419414 -0.330415 0.010435
v -0.419414 -0.322501 0.007845
v -0.419414 -0.322314 0.010732
v -0.419414 -0.330177 0.013477
v -0.419414 -0.321752 0.012646
v -0.419414 -0.320725 0.013917
v -0.419414 -0.329464 0.016852
v -0.419414 -0.319138 0.014879
v -0.419414 -0.316693 0.015485
v -0.419414 -0.313090 0.015687
v -0.419414 -0.303465 0.005207
v -0.419414 -0.295576 0.010435
v -0.419414 -0.303465 0.007893
v -0.419414 -0.303593 0.009835
v -0.419414 -0.303976 0.011481
v -0.419414 -0.295896 0.014710
v -0.419414 -0.304615 0.012830
v -0.419414 -0.305509 0.013881
v -0.419414 -0.306749 0.014671
v -0.419414 -0.308426 0.015236
v -0.419414 -0.296859 0.018076
v -0.419414 -0.310540 0.015574
v -0.419414 -0.328427 0.019359
v -0.419414 -0.298421 0.020734
v -0.419414 -0.326695 0.021700
v -0.419414 -0.300542 0.022888
v -0.419414 -0.324366 0.023711
v -0.419414 -0.303139 0.024528
v -0.419414 -0.321538 0.025229
v -0.419414 -0.306127 0.025645
v -0.419414 -0.317834 0.026182
v -0.419414 -0.309407 0.026286
v -0.419414 -0.312876 0.026500
v -0.419414 -0.312876 0.026500
v -0.419414 -0.317834 0.026182
v -0.419414 -0.309407 0.026286
v -0.419414 -0.306127 0.025645
v -0.419414 -0.321538 0.025229
v -0.419414 -0.303139 0.024528
v -0.419414 -0.324366 0.023711
v -0.419414 -0.300542 0.022888
v -0.419414 -0.326695 0.021700
v -0.419414 -0.298421 0.020734
v -0.419414 -0.328427 0.019359
v -0.419414 -0.296859 0.018076
v -0.419414 -0.329464 0.016852
v -0.419414 -0.313090 0.015687
v -0.419414 -0.310540 0.015574
v -0.419414 -0.308426 0.015236
v -0.419414 -0.295896 0.014710
v -0.419414 -0.306749 0.014671
v -0.419414 -0.305509 0.013881
v -0.419414 -0.304615 0.012830
v -0.419414 -0.303976 0.011481
v -0.419414 -0.295576 0.010435
v -0.419414 -0.303593 0.009835
v -0.419414 -0.303465 0.007893
v -0.419414 -0.303465 0.005207
v -0.419414 -0.322501 0.005207
v -0.419414 -0.295576 -0.005558
v -0.419414 -0.316693 0.015485
v -0.419414 -0.319138 0.014879
v -0.419414 -0.320725 0.013917
v -0.419414 -0.330177 0.013477
v -0.419414 -0.321752 0.012646
v -0.419414 -0.322314 0.010732
v -0.419414 -0.330415 0.010435
v -0.419414 -0.322501 0.007845
v -0.419414 -0.330415 -0.005558
vn 1 0 0
vn -1 0 0
vn 0 1 0
vn 0 0.999298612110319 0.037447080452157604
vn 0 -0.999298612110319 -0.037447080452157604
vn 0 -1 0
vn 0 0.9844252243699938 0.17580380435043913
vn 0 -0.9844252243699938 -0.17580380435043913
vn 0 0.9191287878583728 0.39395719479405167
vn 0 -0.9191287878583728 -0.39395719479405167
vn 0 0.7933258089525276 0.6087973068680723
vn 0 -0.7933258089525276 -0.6087973068680723
vn 0 0.6273762087180136 0.7787163108183951
vn 0 -0.6273762087180136 -0.7787163108183951
vn 0 0.4443948180376827 0.8958310363574454
vn 0 -0.4443948180376827 -0.8958310363574454
vn 0 0.27197631309495485 0.9623039463263543
vn 0 -0.27197631309495485 -0.9623039463263543
vn 0 0.12704440392856198 0.9918970306591487
vn 0 -0.12704440392856198 -0.9918970306591487
vn 0 -0.0012283480543327698 0.9999992455802442
vn 0 0.0012283480543327698 -0.9999992455802442
vn 0 -0.1573288939082501 0.9875462617728885
vn 0 0.1573288939082501 -0.9875462617728885
vn 0 -0.3637461984856282 0.9314980961264784
vn 0 0.3637461984856282 -0.9314980961264784
vn 0 -0.5666694957958495 0.8239451938900293
vn 0 0.5666694957958495 -0.8239451938900293
vn 0 -0.7332285141041599 0.6799823130821904
vn 0 0.7332285141041599 -0.6799823130821904
vn 0 -0.8705221781553989 0.49212918765257163
vn 0 0.8705221781553989 -0.49212918765257163
vn 0 -0.9552918753372326 0.2956643923685664
vn 0 0.9552918753372326 -0.2956643923685664
vn 0 -0.989780615668679 0.1425985022590721
vn 0 0.989780615668679 -0.1425985022590721
vn 0 -0.9992402468036136 0.03897344182714171
vn 0 0.9992402468036136 -0.03897344182714171
vn 0 0 -1
vn 0 0 1
usemtl material_0_0
f 1//1 2//1 3//1
f 2//1 1//1 4//1
f 2//1 4//1 5//1
f 5//1 4//1 6//1
f 6//1 4//1 7//1
f 7//1 4//1 8//1
f 7//1 8//1 9//1
f 9//1 8//1 10//1
f 10//1 8//1 11//1
f 11//1 8//1 12//1
f 12//1 8//1 13//1
f 12//1 13//1 14//1
f 14//1 13//1 15//1
f 15//1 13//1 16//1
f 16//1 13//1 17//1
f 17//1 13//1 18//1
f 17//1 18//1 19//1
f 19//1 18//1 20//1
f 19//1 20//1 21//1
f 21//1 20//1 22//1
f 21//1 22//1 23//1
f 23//1 22//1 24//1
f 23//1 24//1 25//1
f 25//1 24//1 26//1
f 25//1 26//1 27//1
f 3//1 28//1 29//1
f 28//1 3//1 2//1
f 29//1 28//1 30//1
f 29//1 30//1 31//1
f 29//1 31//1 32//1
f 32//1 31//1 33//1
f 32//1 33//1 34//1
f 32//1 34//1 16//1
f 16//1 34//1 35//1
f 16//1 35//1 36//1
f 16//1 36//1 15//1
f 37//2 38//2 39//2
f 38//2 40//2 39//2
f 40//2 41//2 39//2
f 39//2 41//2 42//2
f 41//2 43//2 42//2
f 43//2 44//2 42//2
f 42//2 44//2 45//2
f 44//2 46//2 45//2
f 46//2 47//2 45//2
f 48//2 49//2 47//2
f 45//2 47//2 49//2
f 50//2 51//2 52//2
f 51//2 53//2 52//2
f 52//2 53//2 54//2
f 53//2 55//2 54//2
f 54//2 55//2 56//2
f 55//2 57//2 56//2
f 56//2 57//2 58//2
f 57//2 59//2 58//2
f 58//2 59//2 60//2
f 59//2 61//2 60//2
f 60//2 61//2 39//2
f 39//2 61//2 37//2
f 37//2 61//2 62//2
f 62//2 61//2 63//2
f 61//2 64//2 63//2
f 63//2 64//2 65//2
f 65//2 64//2 66//2
f 66//2 64//2 67//2
f 67//2 64//2 68//2
f 64//2 69//2 68//2
f 68//2 69//2 70//2
f 70//2 69//2 71//2
f 71//2 69//2 48//2
f 69//2 72//2 48//2
f 49//2 48//2 72//2
f 73//3 74//4 75//3
f 74//4 73//3 76//4
f 77//5 78//6 79//5
f 80//6 79//5 78//6
f 76//4 81//7 74//4
f 81//7 76//4 82//7
f 83//8 77//5 84//8
f 79//5 84//8 77//5
f 82//7 85//9 81//7
f 85//9 82//7 86//9
f 87//10 83//8 88//10
f 84//8 88//10 83//8
f 86//9 89//11 85//9
f 89//11 86//9 90//11
f 91//12 87//10 92//12
f 88//10 92//12 87//10
f 90//11 93//13 89//11
f 93//13 90//11 94//13
f 95//14 91//12 96//14
f 92//12 96//14 91//12
f 93//13 97//15 98//15
f 97//15 93//13 94//13
f 95//14 96//14 99//16
f 100//16 99//16 96//14
f 98//15 101//17 102//17
f 101//17 98//15 97//15
f 99//16 100//16 103//18
f 104//18 103//18 100//16
f 102//17 105//19 106//19
f 105//19 102//17 101//17
f 103//18 104//18 107//20
f 108//20 107//20 104//18
f 106//19 109//21 110//21
f 109//21 106//19 105//19
f 107//20 108//20 111//22
f 112//22 111//22 108//20
f 110//21 113//23 114//23
f 113//23 110//21 109//21
f 111//22 112//22 115//24
f 116//24 115//24 112//22
f 114//23 117//25 118//25
f 117//25 114//23 113//23
f 115//24 116//24 119//26
f 120//26 119//26 116//24
f 118//25 121//27 122//27
f 121//27 118//25 117//25
f 119//26 120//26 123//28
f 124//28 123//28 120//26
f 122//27 125//29 126//29
f 125//29 122//27 121//27
f 123//28 124//28 127//30
f 128//30 127//30 124//28
f 125//29 129//31 126//29
f 129//31 125//29 130//31
f 131//32 127//30 132//32
f 128//30 132//32 127//30
f 130//31 133//33 129//31
f 133//33 130//31 134//33
f 135//34 131//32 136//34
f 132//32 136//34 131//32
f 134//33 137//35 133//33
f 137//35 134//33 138//35
f 139//36 135//34 140//36
f 136//34 140//36 135//34
f 138//35 141//37 137//35
f 141//37 138//35 142//37
f 143//38 139//36 144//38
f 140//36 144//38 139//36
f 142//37 145//6 141//37
f 145//6 142//37 146//6
f 147//3 143//38 148//3
f 144//38 148//3 143//38
f 149//39 150//39 151//39
f 150//39 149//39 152//39
f 153//40 154//40 155//40
f 156//40 155//40 154//40
f 157//2 158//2 159//2
f 158//2 157//2 160//2
f 158//2 160//2 161//2
f 161//2 160//2 162//2
f 162//2 160//2 163//2
f 162//2 163//2 164//2
f 164//2 163//2 165//2
f 165//2 163//2 166//2
f 165//2 166//2 167//2
f 167//2 166//2 168//2
f 168//2 166//2 169//2
f 159//2 170//2 171//2
f 170//2 159//2 158//2
f 171//2 170//2 172//2
f 171//2 172//2 173//2
f 171//2 173//2 174//2
f 171//2 174//2 175//2
f 175//2 174//2 176//2
f 175//2 176//2 177//2
f 175//2 177//2 178//2
f 175//2 178//2 179//2
f 175//2 179//2 180//2
f 180//2 179//2 181//2
f 180//2 181//2 169//2
f 180//2 169//2 166//2
f 180//2 166//2 182//2
f 180//2 182//2 183//2
f 183//2 182//2 184//2
f 183//2 184//2 185//2
f 185//2 184//2 186//2
f 185//2 186//2 187//2
f 187//2 186//2 188//2
f 187//2 188//2 189//2
f 189//2 188//2 190//2
f 189//2 190//2 191//2
f 191//2 190//2 192//2
f 193//1 194//1 195//1
f 195//1 194//1 196//1
f 194//1 197//1 196//1
f 196//1 197//1 198//1
f 197//1 199//1 198//1
f 198//1 199//1 200//1
f 199//1 201//1 200//1
f 200//1 201//1 202//1
f 201//1 203//1 202//1
f 202//1 203//1 204//1
f 203//1 205//1 204//1
f 205//1 206//1 204//1
f 206//1 207//1 204//1
f 207//1 208//1 204//1
f 204//1 208//1 209//1
f 208//1 210//1 209//1
f 210//1 211//1 209//1
f 211//1 212//1 209//1
f 212//1 213//1 209//1
f 209//1 213//1 214//1
f 213//1 215//1 214//1
f 215//1 216//1 214//1
f 216//1 217//1 214//1
f 218//1 219//1 217//1
f 214//1 217//1 219//1
f 206//1 205//1 220//1
f 220//1 205//1 221//1
f 221//1 205//1 222//1
f 205//1 223//1 222//1
f 222//1 223//1 224//1
f 224//1 223//1 225//1
f 223//1 226//1 225//1
f 225//1 226//1 227//1
f 227//1 226//1 218//1
f 226//1 228//1 218//1
f 219//1 218//1 228//1
