# SSTK version 0.8.0
# 5
mtllib original-5.mtl
o #ID15
v 0.417887 -0.160609 0.247554
v 0.417887 -0.239763 0.229981
v 0.417887 -0.239763 0.212318
v 0.417887 -0.456916 0.229981
v 0.417887 -0.239763 0.265128
v 0.417887 -0.456916 0.265128
v 0.417887 -0.239763 0.282790
v 0.417887 -0.160609 0.247554
v 0.417887 -0.239763 0.229981
v 0.417887 -0.239763 0.282790
v 0.417887 -0.239763 0.265128
v 0.417887 -0.456916 0.229981
v 0.417887 -0.456916 0.265128
v 0.417887 -0.239763 0.212318
vn 1 0 0
vn -1 0 0
usemtl material_0_0
f 1//1 2//1 3//1
f 4//1 5//1 6//1
f 5//1 4//1 2//1
f 5//1 2//1 7//1
f 7//1 2//1 1//1
f 8//2 9//2 10//2
f 10//2 9//2 11//2
f 9//2 12//2 11//2
f 13//2 11//2 12//2
f 14//2 9//2 8//2
