# SSTK version 0.8.0
# 27
mtllib original-27.mtl
o #ID143
v 0.417567 -0.258289 0.053979
v 0.417174 -0.258289 0.049440
v 0.417174 -0.258289 0.053979
v 0.417567 -0.258289 0.049440
v 0.417567 -0.258289 0.049440
v 0.417567 -0.258289 0.053979
v 0.417174 -0.258289 0.049440
v 0.417174 -0.258289 0.053979
v 0.417174 -0.251207 0.053979
v 0.417567 -0.258289 0.053979
v 0.417174 -0.258289 0.053979
v 0.417567 -0.251207 0.053979
v 0.417567 -0.251207 0.053979
v 0.417174 -0.251207 0.053979
v 0.417567 -0.258289 0.053979
v 0.417174 -0.258289 0.053979
v 0.417174 -0.257813 0.046588
v 0.417567 -0.257813 0.046588
v 0.417567 -0.257813 0.046588
v 0.417174 -0.257813 0.046588
v 0.417567 -0.251207 0.049250
v 0.417174 -0.251207 0.053979
v 0.417174 -0.251207 0.049250
v 0.417567 -0.251207 0.053979
v 0.417567 -0.251207 0.053979
v 0.417567 -0.251207 0.049250
v 0.417174 -0.251207 0.053979
v 0.417174 -0.251207 0.049250
v 0.417174 -0.257433 0.045617
v 0.417567 -0.257433 0.045617
v 0.417567 -0.257433 0.045617
v 0.417174 -0.257433 0.045617
v 0.417567 -0.251433 0.046772
v 0.417174 -0.251433 0.046772
v 0.417567 -0.251433 0.046772
v 0.417174 -0.251433 0.046772
v 0.417567 -0.257433 0.045617
v 0.417174 -0.256720 0.044842
v 0.417174 -0.257433 0.045617
v 0.417567 -0.256720 0.044842
v 0.417567 -0.256720 0.044842
v 0.417567 -0.257433 0.045617
v 0.417174 -0.256720 0.044842
v 0.417174 -0.257433 0.045617
v 0.417567 -0.252110 0.045234
v 0.417174 -0.252110 0.045234
v 0.417567 -0.252110 0.045234
v 0.417174 -0.252110 0.045234
v 0.417567 -0.255776 0.044334
v 0.417174 -0.256720 0.044842
v 0.417567 -0.256720 0.044842
v 0.417174 -0.255776 0.044334
v 0.417174 -0.255776 0.044334
v 0.417567 -0.255776 0.044334
v 0.417174 -0.256720 0.044842
v 0.417567 -0.256720 0.044842
v 0.417567 -0.252110 0.045234
v 0.417174 -0.253209 0.044432
v 0.417567 -0.253209 0.044432
v 0.417174 -0.252110 0.045234
v 0.417174 -0.252110 0.045234
v 0.417567 -0.252110 0.045234
v 0.417174 -0.253209 0.044432
v 0.417567 -0.253209 0.044432
v 0.417567 -0.254700 0.044164
v 0.417174 -0.255776 0.044334
v 0.417567 -0.255776 0.044334
v 0.417174 -0.254700 0.044164
v 0.417174 -0.254700 0.044164
v 0.417567 -0.254700 0.044164
v 0.417174 -0.255776 0.044334
v 0.417567 -0.255776 0.044334
vn 0 1 0
vn 0 0.9965926763199133 0.08248052803851519
vn 0 -0.9965926763199133 -0.08248052803851519
vn 0 -1 0
vn 0 0 -1
vn 0 0 1
vn 0 0.9640036803555396 0.2658888945800007
vn 0 -0.9640036803555396 -0.2658888945800007
vn 0 -0.9989678692971142 0.04542241860561683
vn 0 0.9989678692971142 -0.04542241860561683
vn 0 0.9312007700785482 0.3645066882858509
vn 0 -0.9312007700785482 -0.3645066882858509
vn 0 -0.9682268587115568 0.2500734893377367
vn 0 0.9682268587115568 -0.2500734893377367
vn 0 0.7360996184042001 0.6768732169211537
vn 0 -0.7360996184042001 -0.6768732169211537
vn 0 -0.9152629281137349 0.402857012376193
vn 0 0.9152629281137349 -0.402857012376193
vn 0 0.47360427505972175 0.8807377536163392
vn 0 -0.47360427505972175 -0.8807377536163392
vn 0 -0.5894691123841105 0.8077909169736245
vn 0 -0.3930073185092447 0.9195353433110512
vn 0 0.5894691123841105 -0.8077909169736245
vn 0 0.3930073185092447 -0.9195353433110512
vn 0 -0.010610770042858503 0.99994370419494
vn 0 0.15554219207525746 0.9878292496602961
vn 0 0.010610770042858503 -0.99994370419494
vn 0 -0.15554219207525746 -0.9878292496602961
usemtl material_0_0
f 1//1 2//2 3//1
f 2//2 1//1 4//2
f 5//3 6//4 7//3
f 8//4 7//3 6//4
f 9//5 10//5 11//5
f 10//5 9//5 12//5
f 13//6 14//6 15//6
f 16//6 15//6 14//6
f 4//2 17//7 2//2
f 17//7 4//2 18//7
f 19//8 5//3 20//8
f 7//3 20//8 5//3
f 21//9 22//4 23//9
f 22//4 21//9 24//4
f 25//1 26//10 27//1
f 28//10 27//1 26//10
f 18//7 29//11 17//7
f 29//11 18//7 30//11
f 31//12 19//8 32//12
f 20//8 32//12 19//8
f 33//13 23//9 34//13
f 23//9 33//13 21//9
f 26//10 35//14 28//10
f 36//14 28//10 35//14
f 37//15 38//15 39//15
f 38//15 37//15 40//15
f 41//16 42//16 43//16
f 44//16 43//16 42//16
f 45//17 34//13 46//17
f 34//13 45//17 33//13
f 35//14 47//18 36//14
f 48//18 36//14 47//18
f 49//19 50//19 51//19
f 50//19 49//19 52//19
f 53//20 54//20 55//20
f 56//20 55//20 54//20
f 57//21 58//22 59//22
f 58//22 57//21 60//21
f 61//23 62//23 63//24
f 64//24 63//24 62//23
f 65//25 66//26 67//26
f 66//26 65//25 68//25
f 69//27 70//27 71//28
f 72//28 71//28 70//27
f 59//22 68//25 65//25
f 68//25 59//22 58//22
f 63//24 64//24 69//27
f 70//27 69//27 64//24
