# SSTK version 0.8.0
# 69
mtllib original-69.mtl
o #ID173
v -0.419414 -0.361095 0.077820
v -0.419021 -0.361095 0.082359
v -0.419021 -0.361095 0.077820
v -0.419414 -0.361095 0.082359
v -0.419414 -0.361095 0.082359
v -0.419414 -0.361095 0.077820
v -0.419021 -0.361095 0.082359
v -0.419021 -0.361095 0.077820
v -0.419021 -0.354013 0.077820
v -0.419414 -0.361095 0.077820
v -0.419021 -0.361095 0.077820
v -0.419414 -0.354013 0.077820
v -0.419414 -0.354013 0.077820
v -0.419021 -0.354013 0.077820
v -0.419414 -0.361095 0.077820
v -0.419021 -0.361095 0.077820
v -0.419021 -0.360619 0.085211
v -0.419414 -0.360619 0.085211
v -0.419414 -0.360619 0.085211
v -0.419021 -0.360619 0.085211
v -0.419414 -0.354013 0.082549
v -0.419021 -0.354013 0.077820
v -0.419021 -0.354013 0.082549
v -0.419414 -0.354013 0.077820
v -0.419414 -0.354013 0.077820
v -0.419414 -0.354013 0.082549
v -0.419021 -0.354013 0.077820
v -0.419021 -0.354013 0.082549
v -0.419021 -0.360239 0.086182
v -0.419414 -0.360239 0.086182
v -0.419414 -0.360239 0.086182
v -0.419021 -0.360239 0.086182
v -0.419414 -0.354239 0.085027
v -0.419021 -0.354239 0.085027
v -0.419414 -0.354239 0.085027
v -0.419021 -0.354239 0.085027
v -0.419414 -0.360239 0.086182
v -0.419021 -0.359526 0.086958
v -0.419021 -0.360239 0.086182
v -0.419414 -0.359526 0.086958
v -0.419414 -0.359526 0.086958
v -0.419414 -0.360239 0.086182
v -0.419021 -0.359526 0.086958
v -0.419021 -0.360239 0.086182
v -0.419414 -0.354916 0.086566
v -0.419021 -0.354916 0.086566
v -0.419414 -0.354916 0.086566
v -0.419021 -0.354916 0.086566
v -0.419414 -0.358582 0.087466
v -0.419021 -0.359526 0.086958
v -0.419414 -0.359526 0.086958
v -0.419021 -0.358582 0.087466
v -0.419021 -0.358582 0.087466
v -0.419414 -0.358582 0.087466
v -0.419021 -0.359526 0.086958
v -0.419414 -0.359526 0.086958
v -0.419414 -0.354916 0.086566
v -0.419021 -0.356015 0.087368
v -0.419414 -0.356015 0.087368
v -0.419021 -0.354916 0.086566
v -0.419021 -0.354916 0.086566
v -0.419414 -0.354916 0.086566
v -0.419021 -0.356015 0.087368
v -0.419414 -0.356015 0.087368
v -0.419414 -0.357506 0.087635
v -0.419021 -0.358582 0.087466
v -0.419414 -0.358582 0.087466
v -0.419021 -0.357506 0.087635
v -0.419021 -0.357506 0.087635
v -0.419414 -0.357506 0.087635
v -0.419021 -0.358582 0.087466
v -0.419414 -0.358582 0.087466
vn 0 1 0
vn 0 0.9965926763196402 -0.08248052804181488
vn 0 -0.9965926763196402 0.08248052804181488
vn 0 -1 0
vn 0 0 1
vn 0 0 -1
vn 0 0.9640036803546592 -0.2658888945831925
vn 0 -0.9640036803546592 0.2658888945831925
vn 0 -0.9989678692972646 -0.04542241860230928
vn 0 0.9989678692972646 0.04542241860230928
vn 0 0.9312007700773415 -0.3645066882889342
vn 0 -0.9312007700773415 0.3645066882889342
vn 0 -0.9682268587123848 -0.25007348933453094
vn 0 0.9682268587123848 0.25007348933453094
vn 0 0.7360996184019589 -0.6768732169235908
vn 0 -0.7360996184019589 0.6768732169235908
vn 0 -0.9152629281150688 -0.40285701237316257
vn 0 0.9152629281150688 0.40285701237316257
vn 0 0.4736042750568055 -0.8807377536179073
vn 0 -0.4736042750568055 0.8807377536179073
vn 0 -0.589469112386785 -0.8077909169716726
vn 0 -0.39300731851228937 -0.91953534330975
vn 0 0.589469112386785 0.8077909169716726
vn 0 0.39300731851228937 0.91953534330975
vn 0 -0.010610770046169445 -0.999943704194905
vn 0 0.15554219207198663 -0.9878292496608111
vn 0 0.010610770046169445 0.999943704194905
vn 0 -0.15554219207198663 0.9878292496608111
usemtl material_0_0
f 1//1 2//2 3//1
f 2//2 1//1 4//2
f 5//3 6//4 7//3
f 8//4 7//3 6//4
f 9//5 10//5 11//5
f 10//5 9//5 12//5
f 13//6 14//6 15//6
f 16//6 15//6 14//6
f 4//2 17//7 2//2
f 17//7 4//2 18//7
f 19//8 5//3 20//8
f 7//3 20//8 5//3
f 21//9 22//4 23//9
f 22//4 21//9 24//4
f 25//1 26//10 27//1
f 28//10 27//1 26//10
f 18//7 29//11 17//7
f 29//11 18//7 30//11
f 31//12 19//8 32//12
f 20//8 32//12 19//8
f 33//13 23//9 34//13
f 23//9 33//13 21//9
f 26//10 35//14 28//10
f 36//14 28//10 35//14
f 37//15 38//15 39//15
f 38//15 37//15 40//15
f 41//16 42//16 43//16
f 44//16 43//16 42//16
f 45//17 34//13 46//17
f 34//13 45//17 33//13
f 35//14 47//18 36//14
f 48//18 36//14 47//18
f 49//19 50//19 51//19
f 50//19 49//19 52//19
f 53//20 54//20 55//20
f 56//20 55//20 54//20
f 57//21 58//22 59//22
f 58//22 57//21 60//21
f 61//23 62//23 63//24
f 64//24 63//24 62//23
f 65//25 66//26 67//26
f 66//26 65//25 68//25
f 69//27 70//27 71//28
f 72//28 71//28 70//27
f 59//22 68//25 65//25
f 68//25 59//22 58//22
f 63//24 64//24 69//27
f 70//27 69//27 64//24
