# SSTK version 0.8.0
# 75
mtllib original-75.mtl
o instance_8/Component_2/ID218#ID218
v -0.418962 0.589819 0.697311
v 0.417174 0.294200 0.401692
v 0.417174 0.589819 0.697311
v -0.418962 0.294200 0.401692
v -0.418962 0.294200 0.401692
v -0.418962 0.589819 0.697311
v 0.417174 0.294200 0.401692
v 0.417174 0.589819 0.697311
v -0.418962 0.294200 0.401692
v 0.417174 0.294970 0.400923
v 0.417174 0.294200 0.401692
v -0.418962 0.294970 0.400923
v -0.418962 0.294970 0.400923
v -0.418962 0.294200 0.401692
v 0.417174 0.294970 0.400923
v 0.417174 0.294200 0.401692
v 0.417174 0.294970 0.400923
v 0.417174 0.589819 0.697311
v 0.417174 0.294200 0.401692
v 0.417174 0.590589 0.696541
v 0.417174 0.590589 0.696541
v 0.417174 0.294970 0.400923
v 0.417174 0.589819 0.697311
v 0.417174 0.294200 0.401692
v 0.417174 0.590589 0.696541
v -0.418962 0.589819 0.697311
v 0.417174 0.589819 0.697311
v -0.418962 0.590589 0.696541
v -0.418962 0.590589 0.696541
v 0.417174 0.590589 0.696541
v -0.418962 0.589819 0.697311
v 0.417174 0.589819 0.697311
v -0.418962 0.294200 0.401692
v -0.418962 0.590589 0.696541
v -0.418962 0.294970 0.400923
v -0.418962 0.589819 0.697311
v -0.418962 0.589819 0.697311
v -0.418962 0.294200 0.401692
v -0.418962 0.590589 0.696541
v -0.418962 0.294970 0.400923
v 0.417174 0.294970 0.400923
v -0.418962 0.590589 0.696541
v 0.417174 0.590589 0.696541
v -0.418962 0.294970 0.400923
v -0.418962 0.294970 0.400923
v 0.417174 0.294970 0.400923
v -0.418962 0.590589 0.696541
v 0.417174 0.590589 0.696541
vt 42.37411 20.71608
vt 44.37411 19.71608
vt 44.37411 20.71608
vt 42.37411 19.71608
vt 9.277629 -6.143988
vt 7.277629 -6.141384
vt 7.277629 -6.143988
vt 9.277629 -6.141384
vt 7.244097 11.52557
vt 6.78934 12.41619
vt 7.241775 11.52439
vt 6.791662 12.41737
vt 44.37411 -6.141384
vt 42.37411 -6.143988
vt 44.37411 -6.143988
vt 42.37411 -6.141384
vt 44.40996 11.52439
vt 44.86008 12.41737
vt 44.40764 11.52557
vt 44.8624 12.41619
vt 7.277629 19.71608
vt 9.277629 20.71608
vt 7.277629 20.71608
vt 9.277629 19.71608
vn 0 -0.7071067811853776 0.7071067811877176
vn 0 0.7071067811853776 -0.7071067811877176
vn 0 -0.7071067811877176 -0.7071067811853776
vn 0 0.7071067811877176 0.7071067811853776
vn 1 0 0
vn -1 0 0
usemtl material_0_0
f 1/1/1 2/2/1 3/3/1
f 2/2/1 1/1/1 4/4/1
f 5/4/2 6/1/2 7/2/2
f 8/3/2 7/2/2 6/1/2
f 9/5/3 10/6/3 11/7/3
f 10/6/3 9/5/3 12/8/3
f 13/8/4 14/5/4 15/6/4
f 16/7/4 15/6/4 14/5/4
f 17/9/5 18/10/5 19/11/5
f 18/10/5 17/9/5 20/12/5
f 21/12/6 22/9/6 23/10/6
f 24/11/6 23/10/6 22/9/6
f 25/13/4 26/14/4 27/15/4
f 26/14/4 25/13/4 28/16/4
f 29/16/3 30/13/3 31/14/3
f 32/15/3 31/14/3 30/13/3
f 33/17/6 34/18/6 35/19/6
f 34/18/6 33/17/6 36/20/6
f 37/20/5 38/17/5 39/18/5
f 40/19/5 39/18/5 38/17/5
f 41/21/2 42/22/2 43/23/2
f 42/22/2 41/21/2 44/24/2
f 45/24/1 46/21/1 47/22/1
f 48/23/1 47/22/1 46/21/1
