# SSTK version 0.8.0
# 28
mtllib original-28.mtl
o #ID149
v 0.417567 -0.253203 0.011737
v 0.417174 -0.265727 0.007892
v 0.417567 -0.265727 0.007892
v 0.417174 -0.253203 0.011737
v 0.417174 -0.253203 0.011737
v 0.417567 -0.253203 0.011737
v 0.417174 -0.265727 0.007892
v 0.417567 -0.265727 0.007892
v 0.417567 -0.265727 0.015543
v 0.417174 -0.265727 0.007892
v 0.417174 -0.265727 0.015543
v 0.417567 -0.265727 0.007892
v 0.417567 -0.265727 0.007892
v 0.417567 -0.265727 0.015543
v 0.417174 -0.265727 0.007892
v 0.417174 -0.265727 0.015543
v 0.417174 -0.253203 0.011737
v 0.417567 -0.265727 0.015543
v 0.417174 -0.265727 0.015543
v 0.417567 -0.253203 0.011737
v 0.417567 -0.253203 0.011737
v 0.417174 -0.253203 0.011737
v 0.417567 -0.265727 0.015543
v 0.417174 -0.265727 0.015543
vn 0 -0.29352019195208257 0.955952873794735
vn 0 0.29352019195208257 -0.955952873794735
vn 0 1 0
vn 0 -1 0
vn 0 -0.290719085352677 -0.9568084517873485
vn 0 0.290719085352677 0.9568084517873485
usemtl material_0_0
f 1//1 2//1 3//1
f 2//1 1//1 4//1
f 5//2 6//2 7//2
f 8//2 7//2 6//2
f 9//3 10//3 11//3
f 10//3 9//3 12//3
f 13//4 14//4 15//4
f 16//4 15//4 14//4
f 17//5 18//5 19//5
f 18//5 17//5 20//5
f 21//6 22//6 23//6
f 24//6 23//6 22//6
