# SSTK version 0.8.0
# 66
mtllib original-66.mtl
o #ID155
v -0.419414 -0.304606 -0.068760
v -0.419021 -0.317130 -0.064915
v -0.419414 -0.317130 -0.064915
v -0.419021 -0.304606 -0.068760
v -0.419021 -0.304606 -0.068760
v -0.419414 -0.304606 -0.068760
v -0.419021 -0.317130 -0.064915
v -0.419414 -0.317130 -0.064915
v -0.419414 -0.317130 -0.072566
v -0.419021 -0.317130 -0.064915
v -0.419021 -0.317130 -0.072566
v -0.419414 -0.317130 -0.064915
v -0.419414 -0.317130 -0.064915
v -0.419414 -0.317130 -0.072566
v -0.419021 -0.317130 -0.064915
v -0.419021 -0.317130 -0.072566
v -0.419021 -0.304606 -0.068760
v -0.419414 -0.317130 -0.072566
v -0.419021 -0.317130 -0.072566
v -0.419414 -0.304606 -0.068760
v -0.419414 -0.304606 -0.068760
v -0.419021 -0.304606 -0.068760
v -0.419414 -0.317130 -0.072566
v -0.419021 -0.317130 -0.072566
vn 0 -0.2935201919552478 -0.9559528737937633
vn 0 0.2935201919552478 0.9559528737937633
vn 0 1 0
vn 0 -1 0
vn 0 -0.29071908534950885 0.9568084517883111
vn 0 0.29071908534950885 -0.9568084517883111
usemtl material_0_0
f 1//1 2//1 3//1
f 2//1 1//1 4//1
f 5//2 6//2 7//2
f 8//2 7//2 6//2
f 9//3 10//3 11//3
f 10//3 9//3 12//3
f 13//4 14//4 15//4
f 16//4 15//4 14//4
f 17//5 18//5 19//5
f 18//5 17//5 20//5
f 21//6 22//6 23//6
f 24//6 23//6 22//6
