# SSTK version 0.8.0
# 15
mtllib original-15.mtl
o #ID71
v 0.417174 -0.295576 -0.019822
v 0.417174 -0.314850 -0.009675
v 0.417174 -0.295576 -0.009675
v 0.417174 -0.330415 -0.009675
v 0.417174 -0.330415 -0.019822
v 0.417174 -0.311285 0.003372
v 0.417174 -0.295576 0.003444
v 0.417174 -0.330415 0.013496
v 0.417174 -0.295576 0.013496
v 0.417174 -0.330415 0.003372
v 0.417174 -0.311285 0.003372
v 0.417174 -0.295576 0.003444
v 0.417174 -0.330415 0.003372
v 0.417174 -0.330415 0.013496
v 0.417174 -0.295576 0.013496
v 0.417174 -0.330415 -0.009675
v 0.417174 -0.314850 -0.009675
v 0.417174 -0.330415 -0.019822
v 0.417174 -0.295576 -0.019822
v 0.417174 -0.295576 -0.009675
v 0.417567 -0.295576 0.013496
v 0.417174 -0.295576 0.003444
v 0.417174 -0.295576 0.013496
v 0.417567 -0.295576 0.003444
v 0.417567 -0.295576 0.003444
v 0.417567 -0.295576 0.013496
v 0.417174 -0.295576 0.003444
v 0.417174 -0.295576 0.013496
v 0.417174 -0.295576 0.003444
v 0.417567 -0.314850 -0.009675
v 0.417174 -0.314850 -0.009675
v 0.417567 -0.295576 0.003444
v 0.417567 -0.295576 0.003444
v 0.417174 -0.295576 0.003444
v 0.417567 -0.314850 -0.009675
v 0.417174 -0.314850 -0.009675
v 0.417567 -0.295576 -0.009675
v 0.417174 -0.314850 -0.009675
v 0.417567 -0.314850 -0.009675
v 0.417174 -0.295576 -0.009675
v 0.417174 -0.295576 -0.009675
v 0.417567 -0.295576 -0.009675
v 0.417174 -0.314850 -0.009675
v 0.417567 -0.314850 -0.009675
v 0.417567 -0.295576 -0.009675
v 0.417174 -0.295576 -0.019822
v 0.417174 -0.295576 -0.009675
v 0.417567 -0.295576 -0.019822
v 0.417567 -0.295576 -0.019822
v 0.417567 -0.295576 -0.009675
v 0.417174 -0.295576 -0.019822
v 0.417174 -0.295576 -0.009675
v 0.417174 -0.295576 -0.019822
v 0.417567 -0.330415 -0.019822
v 0.417174 -0.330415 -0.019822
v 0.417567 -0.295576 -0.019822
v 0.417567 -0.295576 -0.019822
v 0.417174 -0.295576 -0.019822
v 0.417567 -0.330415 -0.019822
v 0.417174 -0.330415 -0.019822
v 0.417567 -0.330415 -0.019822
v 0.417174 -0.330415 -0.009675
v 0.417174 -0.330415 -0.019822
v 0.417567 -0.330415 -0.009675
v 0.417567 -0.330415 -0.009675
v 0.417567 -0.330415 -0.019822
v 0.417174 -0.330415 -0.009675
v 0.417174 -0.330415 -0.019822
v 0.417567 -0.311285 0.003372
v 0.417174 -0.330415 -0.009675
v 0.417567 -0.330415 -0.009675
v 0.417174 -0.311285 0.003372
v 0.417174 -0.311285 0.003372
v 0.417567 -0.311285 0.003372
v 0.417174 -0.330415 -0.009675
v 0.417567 -0.330415 -0.009675
v 0.417174 -0.311285 0.003372
v 0.417567 -0.330415 0.003372
v 0.417174 -0.330415 0.003372
v 0.417567 -0.311285 0.003372
v 0.417567 -0.311285 0.003372
v 0.417174 -0.311285 0.003372
v 0.417567 -0.330415 0.003372
v 0.417174 -0.330415 0.003372
v 0.417567 -0.330415 0.003372
v 0.417174 -0.330415 0.013496
v 0.417174 -0.330415 0.003372
v 0.417567 -0.330415 0.013496
v 0.417567 -0.330415 0.013496
v 0.417567 -0.330415 0.003372
v 0.417174 -0.330415 0.013496
v 0.417174 -0.330415 0.003372
v 0.417567 -0.295576 0.013496
v 0.417174 -0.330415 0.013496
v 0.417567 -0.330415 0.013496
v 0.417174 -0.295576 0.013496
v 0.417174 -0.295576 0.013496
v 0.417567 -0.295576 0.013496
v 0.417174 -0.330415 0.013496
v 0.417567 -0.330415 0.013496
v 0.417567 -0.330415 0.003372
v 0.417567 -0.295576 0.013496
v 0.417567 -0.330415 0.013496
v 0.417567 -0.295576 0.003444
v 0.417567 -0.311285 0.003372
v 0.417567 -0.314850 -0.009675
v 0.417567 -0.330415 -0.009675
v 0.417567 -0.330415 -0.019822
v 0.417567 -0.295576 -0.009675
v 0.417567 -0.295576 -0.019822
v 0.417567 -0.295576 -0.019822
v 0.417567 -0.330415 -0.019822
v 0.417567 -0.295576 -0.009675
v 0.417567 -0.314850 -0.009675
v 0.417567 -0.330415 -0.009675
v 0.417567 -0.311285 0.003372
v 0.417567 -0.295576 0.003444
v 0.417567 -0.330415 0.003372
v 0.417567 -0.295576 0.013496
v 0.417567 -0.330415 0.013496
vn -1 0 0
vn 1 0 0
vn 0 1 0
vn 0 -1 0
vn 0 0.5626428068257815 -0.8267001100321727
vn 0 -0.5626428068257815 0.8267001100321727
vn 0 0 1
vn 0 0 -1
vn 0 -0.5634622212591668 0.826141831172884
vn 0 0.5634622212591668 -0.826141831172884
usemtl material_0_0
f 1//1 2//1 3//1
f 2//1 1//1 4//1
f 4//1 1//1 5//1
f 2//1 6//1 7//1
f 6//1 2//1 4//1
f 7//1 8//1 9//1
f 8//1 7//1 10//1
f 10//1 7//1 6//1
f 11//2 12//2 13//2
f 13//2 12//2 14//2
f 15//2 14//2 12//2
f 16//2 17//2 11//2
f 12//2 11//2 17//2
f 18//2 19//2 16//2
f 16//2 19//2 17//2
f 20//2 17//2 19//2
f 21//3 22//3 23//3
f 22//3 21//3 24//3
f 25//4 26//4 27//4
f 28//4 27//4 26//4
f 29//5 30//5 31//5
f 30//5 29//5 32//5
f 33//6 34//6 35//6
f 36//6 35//6 34//6
f 37//7 38//7 39//7
f 38//7 37//7 40//7
f 41//8 42//8 43//8
f 44//8 43//8 42//8
f 45//3 46//3 47//3
f 46//3 45//3 48//3
f 49//4 50//4 51//4
f 52//4 51//4 50//4
f 53//8 54//8 55//8
f 54//8 53//8 56//8
f 57//7 58//7 59//7
f 60//7 59//7 58//7
f 61//4 62//4 63//4
f 62//4 61//4 64//4
f 65//3 66//3 67//3
f 68//3 67//3 66//3
f 69//9 70//9 71//9
f 70//9 69//9 72//9
f 73//10 74//10 75//10
f 76//10 75//10 74//10
f 77//8 78//8 79//8
f 78//8 77//8 80//8
f 81//7 82//7 83//7
f 84//7 83//7 82//7
f 85//4 86//4 87//4
f 86//4 85//4 88//4
f 89//3 90//3 91//3
f 92//3 91//3 90//3
f 93//7 94//7 95//7
f 94//7 93//7 96//7
f 97//8 98//8 99//8
f 100//8 99//8 98//8
f 101//2 102//2 103//2
f 102//2 101//2 104//2
f 104//2 101//2 105//2
f 104//2 105//2 106//2
f 106//2 105//2 107//2
f 106//2 107//2 108//2
f 106//2 108//2 109//2
f 109//2 108//2 110//2
f 111//1 112//1 113//1
f 113//1 112//1 114//1
f 112//1 115//1 114//1
f 115//1 116//1 114//1
f 114//1 116//1 117//1
f 116//1 118//1 117//1
f 117//1 118//1 119//1
f 120//1 119//1 118//1
